<svg xmlns="http://www.w3.org/2000/svg" xmlns:xlink="http://www.w3.org/1999/xlink" width="500" zoomAndPan="magnify" viewBox="0 0 375 374.999991" height="500" preserveAspectRatio="xMidYMid meet" version="1.0"><defs><g/><clipPath id="id1"><path d="M 99.984375 37.660156 L 274.734375 37.660156 L 274.734375 282.589844 L 99.984375 282.589844 Z M 99.984375 37.660156 " clip-rule="nonzero"/></clipPath></defs><rect x="-37.5" width="450" fill="#ffffff" y="-37.499999" height="449.999989" fill-opacity="1"/><rect x="-37.5" width="450" fill="#fca695" y="-37.499999" height="449.999989" fill-opacity="1"/><rect x="-37.5" width="450" fill="#ffffff" y="-37.499999" height="449.999989" fill-opacity="1"/><rect x="-37.5" width="450" fill="#fca695" y="-37.499999" height="449.999989" fill-opacity="1"/><g clip-path="url(#id1)"><path fill="#59170f" d="M 134.855469 281.25 C 135.992188 280.28125 137.167969 279.285156 138.511719 278.332031 C 143.304688 274.941406 151.910156 271.972656 161.019531 268.828125 C 176.949219 263.332031 193.417969 257.652344 193.523438 248.390625 C 193.527344 248.359375 193.53125 248.324219 193.53125 248.292969 C 193.53125 248.234375 193.53125 248.167969 193.527344 248.09375 C 193.527344 248.050781 193.527344 248.023438 193.527344 248.011719 L 193.519531 248.011719 C 193.515625 248 193.515625 247.988281 193.515625 247.980469 C 193.289062 244.785156 191.1875 242.84375 188.175781 241.445312 C 202.957031 244.035156 213.242188 248.515625 224.015625 253.222656 C 237.1875 258.976562 250.816406 264.921875 273.414062 266.996094 L 273.414062 281.25 Z M 101.320312 239.511719 C 108.1875 236.605469 115.640625 232.753906 123.523438 228.679688 C 137.757812 221.320312 153.445312 213.222656 168.511719 209.425781 C 163.851562 211.390625 160.363281 213.960938 158.464844 216.996094 C 156.574219 220.015625 156.296875 223.410156 157.664062 226.804688 C 161.207031 235.609375 170.621094 237.9375 178.929688 239.988281 C 185.898438 241.710938 191.921875 243.199219 192.191406 248.195312 C 192.191406 248.234375 192.191406 248.265625 192.191406 248.296875 C 192.191406 256.65625 175.398438 262.453125 160.585938 267.5625 C 151.382812 270.738281 142.691406 273.738281 137.742188 277.238281 C 136.246094 278.296875 134.96875 279.390625 133.730469 280.449219 C 133.414062 280.71875 133.101562 280.988281 132.789062 281.25 L 101.320312 281.25 Z M 146.464844 49.390625 L 175.894531 130.476562 C 172.847656 131.664062 170.019531 133.304688 167.496094 135.335938 L 117.28125 75.324219 C 124.898438 64.609375 134.875 55.699219 146.464844 49.390625 Z M 257.453125 75.324219 L 207.25 135.324219 C 204.691406 133.257812 201.859375 131.628906 198.847656 130.457031 L 228.269531 49.390625 C 239.863281 55.699219 249.835938 64.609375 257.453125 75.324219 Z M 273.414062 195.058594 C 231.636719 181.5 204.269531 171.589844 184.820312 164.277344 C 196.027344 163.234375 207.261719 161.800781 218.40625 159.996094 C 218.410156 159.996094 218.414062 160 218.417969 160 C 218.421875 160 218.429688 160 218.433594 160 C 218.472656 160 218.503906 159.984375 218.539062 159.976562 C 224.410156 159.023438 230.25 157.980469 236.050781 156.824219 C 248.925781 154.257812 261.15625 152.300781 273.414062 150.832031 Z M 223.207031 200.164062 C 216.804688 194.894531 202.15625 189.804688 178.703125 188.070312 C 137.789062 185.039062 121.835938 166.828125 121.390625 156.0625 C 121.21875 151.804688 123.417969 148.894531 127.28125 148.269531 C 139.1875 148.277344 146.625 151.125 168.613281 159.542969 C 188.542969 167.175781 218.640625 178.699219 273.414062 196.46875 L 273.414062 225.695312 C 257.214844 221.796875 239.292969 210.398438 227.367188 202.800781 C 225.894531 201.863281 224.503906 200.980469 223.207031 200.164062 Z M 273.414062 125.285156 L 273.414062 149.480469 C 261.066406 150.957031 248.753906 152.925781 235.789062 155.511719 C 230.246094 156.613281 224.65625 157.617188 219.046875 158.535156 C 218.808594 153.660156 217.484375 148.980469 215.183594 144.796875 L 272.335938 111.707031 C 273.039062 116.132812 273.414062 120.664062 273.414062 125.285156 Z M 272.089844 110.304688 L 214.511719 143.636719 C 213.136719 141.371094 211.476562 139.261719 209.535156 137.359375 C 209.125 136.957031 208.699219 136.570312 208.265625 136.1875 L 258.253906 76.453125 C 265.109375 86.429688 269.914062 97.914062 272.089844 110.304688 Z M 176.957031 131.488281 C 176.960938 131.484375 176.96875 131.488281 176.972656 131.484375 C 176.972656 131.484375 176.976562 131.480469 176.980469 131.480469 C 180.234375 130.292969 183.738281 129.648438 187.367188 129.648438 C 190.964844 129.648438 194.410156 130.261719 197.605469 131.386719 C 197.652344 131.425781 197.703125 131.460938 197.761719 131.484375 C 197.828125 131.511719 197.898438 131.519531 197.964844 131.523438 C 201.1875 132.703125 204.140625 134.414062 206.734375 136.550781 C 206.773438 136.632812 206.828125 136.714844 206.902344 136.777344 C 206.976562 136.839844 207.0625 136.878906 207.148438 136.902344 C 209.707031 139.089844 211.894531 141.699219 213.605469 144.636719 C 213.617188 144.722656 213.644531 144.808594 213.6875 144.886719 C 213.726562 144.953125 213.789062 144.992188 213.847656 145.042969 C 216.128906 149.101562 217.503906 153.757812 217.722656 158.75 C 205.855469 160.664062 193.890625 162.15625 181.964844 163.199219 C 177.21875 161.40625 172.957031 159.773438 169.089844 158.292969 C 164.75 156.632812 160.980469 155.1875 157.621094 153.9375 C 159.789062 143.386719 167.273438 135.027344 176.957031 131.488281 Z M 186.699219 128.335938 C 183.378906 128.40625 180.171875 128.992188 177.152344 130.023438 L 147.664062 48.773438 C 159.367188 42.640625 172.628906 39.125 186.699219 39.015625 Z M 188.035156 128.324219 L 188.035156 39.015625 C 202.105469 39.125 215.371094 42.640625 227.070312 48.773438 L 197.59375 129.996094 C 194.546875 128.960938 191.328125 128.394531 188.035156 128.324219 Z M 116.480469 76.453125 L 166.476562 136.203125 C 164.042969 138.335938 161.921875 140.835938 160.226562 143.640625 L 102.648438 110.304688 C 104.820312 97.914062 109.625 86.429688 116.480469 76.453125 Z M 102.398438 111.703125 L 159.574219 144.808594 C 158.113281 147.472656 157.015625 150.375 156.359375 153.46875 C 143.363281 148.671875 136.71875 146.929688 127.210938 146.929688 C 118.949219 146.929688 110.46875 148.453125 101.320312 151.558594 L 101.320312 125.285156 C 101.320312 120.664062 101.695312 116.132812 102.398438 111.703125 Z M 181.839844 205.957031 C 162.675781 206.921875 141.550781 217.847656 122.914062 227.488281 C 115.25 231.449219 108 235.195312 101.320312 238.050781 L 101.320312 152.96875 C 109.089844 150.296875 116.363281 148.785156 123.417969 148.386719 C 121.152344 149.992188 119.917969 152.71875 120.054688 156.117188 C 120.328125 162.742188 125.550781 170.175781 134.019531 176.011719 C 141.511719 181.167969 155.332031 187.679688 178.605469 189.402344 C 194.945312 190.613281 206.441406 193.375 213.976562 196.484375 C 214.03125 196.53125 214.09375 196.578125 214.171875 196.605469 C 215.980469 197.308594 218.824219 198.996094 222.390625 201.234375 C 224.292969 202.8125 225.316406 204.332031 225.5625 205.632812 C 225.851562 207.148438 224.894531 207.957031 224.039062 208.375 C 221.472656 209.613281 218.234375 208.890625 213.335938 207.789062 C 207.363281 206.449219 199.1875 204.613281 187.324219 205.402344 C 185.441406 205.527344 183.621094 205.71875 181.863281 205.960938 C 181.855469 205.960938 181.847656 205.957031 181.839844 205.957031 Z M 179.25 238.6875 C 171.253906 236.714844 162.191406 234.472656 158.902344 226.304688 C 157.683594 223.28125 157.917969 220.386719 159.59375 217.707031 C 163.324219 211.75 173.722656 207.652344 187.410156 206.742188 C 199.085938 205.964844 207.152344 207.777344 213.042969 209.097656 C 218.03125 210.214844 221.636719 211.023438 224.621094 209.582031 C 226.398438 208.71875 227.21875 207.191406 226.875 205.382812 C 226.769531 204.824219 226.554688 204.257812 226.25 203.679688 C 226.386719 203.765625 226.515625 203.847656 226.648438 203.933594 C 238.730469 211.625 256.917969 223.195312 273.414062 227.078125 L 273.414062 265.648438 C 251.105469 263.582031 237.597656 257.695312 224.550781 251.996094 C 212.390625 246.683594 199.820312 241.191406 180.316406 238.953125 C 179.960938 238.863281 179.605469 238.777344 179.25 238.6875 Z M 273.511719 110.667969 C 273.515625 110.5625 273.5 110.460938 273.457031 110.359375 C 271.234375 97.445312 266.191406 85.492188 258.976562 75.160156 C 258.945312 75.027344 258.882812 74.894531 258.765625 74.796875 C 258.746094 74.777344 258.714844 74.769531 258.6875 74.753906 C 250.828125 63.628906 240.460938 54.410156 228.398438 47.953125 C 228.332031 47.878906 228.246094 47.8125 228.144531 47.777344 C 228.105469 47.761719 228.058594 47.761719 228.019531 47.753906 C 215.867188 41.324219 202.042969 37.664062 187.371094 37.664062 C 187.371094 37.664062 187.371094 37.660156 187.367188 37.660156 C 187.367188 37.660156 187.367188 37.664062 187.363281 37.664062 C 172.695312 37.664062 158.871094 41.324219 146.71875 47.753906 C 146.675781 47.761719 146.628906 47.761719 146.589844 47.777344 C 146.488281 47.8125 146.40625 47.878906 146.335938 47.953125 C 134.277344 54.410156 123.910156 63.628906 116.046875 74.753906 C 116.019531 74.769531 115.992188 74.777344 115.96875 74.796875 C 115.851562 74.894531 115.789062 75.023438 115.757812 75.160156 C 108.542969 85.492188 103.5 97.445312 101.277344 110.363281 C 101.234375 110.460938 101.21875 110.5625 101.226562 110.664062 C 100.425781 115.425781 99.984375 120.300781 99.984375 125.285156 L 99.984375 281.921875 C 99.984375 282.289062 100.285156 282.589844 100.652344 282.589844 L 274.082031 282.589844 C 274.449219 282.589844 274.75 282.289062 274.75 281.921875 L 274.75 125.285156 C 274.75 120.304688 274.3125 115.425781 273.511719 110.667969 " fill-opacity="1" fill-rule="nonzero"/></g><g fill="#59170f" fill-opacity="1"><g transform="translate(42.120297, 314.167979)"><g><path d="M 3.117188 -4.425781 L 8.757812 -4.425781 L 8.757812 -1.613281 C 8.757812 -0.09375 8.054688 0 8.054688 0 L 11.703125 0 C 11.703125 0 11 -0.09375 11 -1.597656 L 11 -11.019531 C 11 -12.578125 11.703125 -12.671875 11.703125 -12.671875 L 8.054688 -12.671875 C 8.054688 -12.671875 8.757812 -12.558594 8.757812 -11.054688 L 8.757812 -5.242188 L 3.117188 -5.242188 L 3.117188 -11.019531 C 3.117188 -12.578125 3.835938 -12.671875 3.835938 -12.671875 L 0.191406 -12.671875 C 0.191406 -12.671875 0.875 -12.558594 0.875 -11.054688 L 0.875 -1.613281 C 0.875 -0.09375 0.191406 0 0.191406 0 L 3.835938 0 C 3.835938 0 3.117188 -0.09375 3.117188 -1.597656 Z M 3.117188 -4.425781 "/></g></g></g><g fill="#59170f" fill-opacity="1"><g transform="translate(58.400893, 314.167979)"><g><path d="M 6.820312 -12.824219 C 3.152344 -12.824219 0.191406 -9.898438 0.191406 -6.308594 C 0.191406 -2.699219 3.152344 0.226562 6.820312 0.226562 C 10.46875 0.226562 13.449219 -2.699219 13.449219 -6.308594 C 13.449219 -9.898438 10.46875 -12.824219 6.820312 -12.824219 Z M 6.820312 -0.550781 C 4.40625 -0.550781 2.449219 -3.191406 2.449219 -6.441406 C 2.449219 -9.6875 4.40625 -12.328125 6.820312 -12.328125 C 9.234375 -12.328125 11.191406 -9.6875 11.191406 -6.441406 C 11.191406 -3.191406 9.234375 -0.550781 6.820312 -0.550781 Z M 6.820312 -0.550781 "/></g></g></g><g fill="#59170f" fill-opacity="1"><g transform="translate(76.429139, 314.167979)"><g><path d="M 9.839844 -4.863281 L 11.039062 -1.652344 C 11.625 -0.09375 12.460938 0 12.460938 0 L 14.019531 0 L 18.179688 -11.074219 C 18.730469 -12.578125 19.492188 -12.671875 19.492188 -12.671875 L 17.058594 -12.671875 C 17.058594 -12.671875 17.726562 -12.578125 17.15625 -11.054688 L 13.621094 -1.613281 C 13.5625 -1.460938 13.507812 -1.347656 13.449219 -1.234375 C 13.394531 -1.347656 13.355469 -1.460938 13.296875 -1.613281 L 9.746094 -11.054688 C 9.175781 -12.578125 9.839844 -12.671875 9.839844 -12.671875 L 6.191406 -12.671875 C 6.191406 -12.671875 6.933594 -12.578125 7.503906 -11.074219 L 9.328125 -6.210938 L 7.597656 -1.613281 C 7.5625 -1.460938 7.503906 -1.347656 7.445312 -1.234375 C 7.390625 -1.347656 7.332031 -1.460938 7.277344 -1.613281 L 3.742188 -11.054688 C 3.171875 -12.578125 3.835938 -12.671875 3.835938 -12.671875 L 0.191406 -12.671875 C 0.191406 -12.671875 0.929688 -12.578125 1.5 -11.074219 L 5.035156 -1.652344 C 5.625 -0.09375 6.460938 0 6.460938 0 L 8.015625 0 Z M 9.839844 -4.863281 "/></g></g></g><g fill="#59170f" fill-opacity="1"><g transform="translate(100.498151, 314.167979)"><g><path d="M 9.554688 0 L 9.535156 -2.449219 C 9.535156 -2.449219 9.042969 -0.550781 4.902344 -0.550781 L 3.285156 -0.550781 C 3.191406 -0.796875 3.117188 -1.121094 3.117188 -1.597656 L 3.117188 -11.019531 C 3.117188 -12.578125 3.835938 -12.671875 3.835938 -12.671875 L 0.191406 -12.671875 C 0.191406 -12.671875 0.875 -12.558594 0.875 -11.054688 L 0.875 -1.613281 C 0.875 -0.09375 0.191406 0 0.191406 0 Z M 9.554688 0 "/></g></g></g><g fill="#59170f" fill-opacity="1"><g transform="translate(114.632187, 314.167979)"><g><path d="M 9.820312 0 L 13.46875 0 C 13.46875 0 12.726562 -0.09375 12.160156 -1.597656 L 8.625 -11.019531 C 7.996094 -12.5 7.5625 -12.671875 7.199219 -12.671875 L 4.9375 -12.671875 C 4.9375 -12.671875 5.625 -12.578125 5.035156 -11.019531 L 1.5 -1.597656 C 0.929688 -0.09375 0.191406 0 0.191406 0 L 2.601562 0 C 2.601562 0 1.9375 -0.09375 2.507812 -1.613281 L 3.570312 -4.425781 L 8.851562 -4.425781 L 9.917969 -1.613281 C 10.488281 -0.09375 9.820312 0 9.820312 0 Z M 3.875 -5.242188 L 6.058594 -11.054688 C 6.097656 -11.191406 6.15625 -11.324219 6.210938 -11.4375 C 6.269531 -11.324219 6.324219 -11.191406 6.363281 -11.054688 L 8.550781 -5.242188 Z M 3.875 -5.242188 "/></g></g></g><g fill="#59170f" fill-opacity="1"><g transform="translate(132.679427, 314.167979)"><g><path d="M 8.625 0 L 9.613281 0 L 9.613281 -11.054688 C 9.613281 -12.558594 10.316406 -12.671875 10.316406 -12.671875 L 7.902344 -12.671875 C 7.902344 -12.671875 8.625 -12.578125 8.625 -11.019531 L 8.625 -3.835938 L 4.3125 -11.054688 C 3.4375 -12.558594 4.066406 -12.671875 4.066406 -12.671875 L 0.191406 -12.671875 C 0.191406 -12.671875 0.894531 -12.578125 0.894531 -11.019531 L 0.894531 -1.597656 C 0.894531 -0.09375 0.191406 0 0.191406 0 L 2.601562 0 C 2.601562 0 1.898438 -0.09375 1.898438 -1.613281 L 1.898438 -11.054688 C 1.898438 -11.152344 1.898438 -11.246094 1.917969 -11.324219 C 1.976562 -11.226562 2.03125 -11.132812 2.109375 -11.019531 Z M 8.625 0 "/></g></g></g><g fill="#59170f" fill-opacity="1"><g transform="translate(147.573305, 314.167979)"><g><path d="M 4.902344 -12.671875 C 4.804688 -12.671875 0.191406 -12.671875 0.191406 -12.671875 C 0.191406 -12.671875 0.875 -12.558594 0.875 -11.054688 L 0.875 -1.613281 C 0.875 -0.09375 0.191406 0 0.191406 0 L 5.074219 0 C 8.566406 -0.152344 11 -2.925781 11 -6.324219 C 11 -9.839844 8.566406 -12.671875 4.902344 -12.671875 Z M 4.371094 -0.625 C 3.96875 -0.625 3.570312 -0.703125 3.191406 -0.835938 C 3.152344 -1.042969 3.117188 -1.292969 3.117188 -1.597656 L 3.117188 -11.019531 C 3.117188 -11.4375 3.171875 -11.757812 3.25 -11.988281 C 3.683594 -12.082031 4.007812 -12.082031 4.371094 -12.082031 C 6.78125 -12.082031 8.738281 -9.632812 8.738281 -6.476562 C 8.738281 -3.304688 6.78125 -0.625 4.371094 -0.625 Z M 4.371094 -0.625 "/></g></g></g><g fill="#59170f" fill-opacity="1"><g transform="translate(163.151048, 314.167979)"><g/></g></g><g fill="#59170f" fill-opacity="1"><g transform="translate(171.377289, 314.167979)"><g><path d="M 14.476562 -12.671875 L 10.21875 -12.671875 C 10.21875 -12.671875 10.921875 -12.578125 10.410156 -11.019531 L 7.808594 -3.152344 L 5.222656 -11.019531 C 4.691406 -12.578125 5.394531 -12.671875 5.394531 -12.671875 L 1.0625 -12.671875 C 1.0625 -12.671875 1.765625 -12.578125 1.652344 -11.019531 L 1.007812 -1.597656 C 0.910156 -0.09375 0.191406 0 0.191406 0 L 2.601562 0 C 2.601562 0 1.898438 -0.09375 2.015625 -1.613281 L 2.660156 -11.054688 C 2.679688 -11.265625 2.699219 -11.457031 2.734375 -11.625 C 2.8125 -11.457031 2.886719 -11.265625 2.964844 -11.054688 L 6.609375 0 C 7.730469 0 7.980469 -0.625 8.113281 -1.042969 L 11.417969 -11.054688 C 11.472656 -11.226562 11.53125 -11.378906 11.589844 -11.511719 C 11.609375 -11.378906 11.625 -11.226562 11.644531 -11.054688 L 12.292969 -1.613281 C 12.40625 -0.09375 11.703125 0 11.703125 0 L 15.351562 0 C 15.351562 0 14.648438 -0.09375 14.53125 -1.597656 L 13.886719 -11.019531 C 13.773438 -12.578125 14.476562 -12.671875 14.476562 -12.671875 Z M 14.476562 -12.671875 "/></g></g></g><g fill="#59170f" fill-opacity="1"><g transform="translate(191.305137, 314.167979)"><g><path d="M 9.820312 0 L 13.46875 0 C 13.46875 0 12.726562 -0.09375 12.160156 -1.597656 L 8.625 -11.019531 C 7.996094 -12.5 7.5625 -12.671875 7.199219 -12.671875 L 4.9375 -12.671875 C 4.9375 -12.671875 5.625 -12.578125 5.035156 -11.019531 L 1.5 -1.597656 C 0.929688 -0.09375 0.191406 0 0.191406 0 L 2.601562 0 C 2.601562 0 1.9375 -0.09375 2.507812 -1.613281 L 3.570312 -4.425781 L 8.851562 -4.425781 L 9.917969 -1.613281 C 10.488281 -0.09375 9.820312 0 9.820312 0 Z M 3.875 -5.242188 L 6.058594 -11.054688 C 6.097656 -11.191406 6.15625 -11.324219 6.210938 -11.4375 C 6.269531 -11.324219 6.324219 -11.191406 6.363281 -11.054688 L 8.550781 -5.242188 Z M 3.875 -5.242188 "/></g></g></g><g fill="#59170f" fill-opacity="1"><g transform="translate(209.352376, 314.167979)"><g><path d="M 8.625 0 L 9.613281 0 L 9.613281 -11.054688 C 9.613281 -12.558594 10.316406 -12.671875 10.316406 -12.671875 L 7.902344 -12.671875 C 7.902344 -12.671875 8.625 -12.578125 8.625 -11.019531 L 8.625 -3.835938 L 4.3125 -11.054688 C 3.4375 -12.558594 4.066406 -12.671875 4.066406 -12.671875 L 0.191406 -12.671875 C 0.191406 -12.671875 0.894531 -12.578125 0.894531 -11.019531 L 0.894531 -1.597656 C 0.894531 -0.09375 0.191406 0 0.191406 0 L 2.601562 0 C 2.601562 0 1.898438 -0.09375 1.898438 -1.613281 L 1.898438 -11.054688 C 1.898438 -11.152344 1.898438 -11.246094 1.917969 -11.324219 C 1.976562 -11.226562 2.03125 -11.132812 2.109375 -11.019531 Z M 8.625 0 "/></g></g></g><g fill="#59170f" fill-opacity="1"><g transform="translate(224.246254, 314.167979)"><g><path d="M 9.820312 0 L 13.46875 0 C 13.46875 0 12.726562 -0.09375 12.160156 -1.597656 L 8.625 -11.019531 C 7.996094 -12.5 7.5625 -12.671875 7.199219 -12.671875 L 4.9375 -12.671875 C 4.9375 -12.671875 5.625 -12.578125 5.035156 -11.019531 L 1.5 -1.597656 C 0.929688 -0.09375 0.191406 0 0.191406 0 L 2.601562 0 C 2.601562 0 1.9375 -0.09375 2.507812 -1.613281 L 3.570312 -4.425781 L 8.851562 -4.425781 L 9.917969 -1.613281 C 10.488281 -0.09375 9.820312 0 9.820312 0 Z M 3.875 -5.242188 L 6.058594 -11.054688 C 6.097656 -11.191406 6.15625 -11.324219 6.210938 -11.4375 C 6.269531 -11.324219 6.324219 -11.191406 6.363281 -11.054688 L 8.550781 -5.242188 Z M 3.875 -5.242188 "/></g></g></g><g fill="#59170f" fill-opacity="1"><g transform="translate(242.293494, 314.167979)"><g><path d="M 12.308594 0 C 12.308594 0 11.589844 -0.09375 11.589844 -1.597656 L 11.589844 -4.996094 C 11.589844 -6.554688 12.308594 -6.648438 12.308594 -6.648438 L 4.957031 -6.648438 L 4.976562 -4.199219 C 4.976562 -4.199219 5.433594 -5.964844 9.195312 -6.078125 C 9.289062 -5.851562 9.347656 -5.507812 9.347656 -5.035156 C 9.347656 -5.035156 9.347656 -5.035156 9.347656 -2.566406 C 9.347656 -0.492188 7.769531 -0.550781 6.820312 -0.550781 C 4.40625 -0.550781 2.449219 -3.191406 2.449219 -6.441406 C 2.449219 -10.03125 4.273438 -12.234375 7.085938 -12.234375 C 9.347656 -12.234375 10.238281 -10.65625 10.316406 -9.289062 L 12.273438 -10.257812 C 11.417969 -11.949219 9.480469 -12.710938 7.066406 -12.710938 C 2.527344 -12.710938 0.191406 -9.535156 0.191406 -6.289062 C 0.191406 -2.699219 3.152344 0.226562 6.820312 0.226562 C 8.949219 0.226562 9.839844 -0.226562 12.308594 0 Z M 12.308594 0 "/></g></g></g><g fill="#59170f" fill-opacity="1"><g transform="translate(259.181974, 314.167979)"><g><path d="M 3.285156 -12.101562 L 4.902344 -12.101562 C 9.042969 -12.101562 9.535156 -10.21875 9.535156 -10.21875 L 9.554688 -12.671875 L 0.191406 -12.671875 C 0.191406 -12.671875 0.875 -12.558594 0.875 -11.054688 L 0.875 -1.613281 C 0.875 -0.09375 0.191406 0 0.191406 0 L 9.554688 0 L 9.535156 -2.449219 C 9.535156 -2.449219 9.042969 -0.550781 4.902344 -0.550781 L 3.285156 -0.550781 C 3.191406 -0.796875 3.117188 -1.121094 3.117188 -1.597656 L 3.117188 -7.296875 L 3.988281 -7.296875 C 6.992188 -7.296875 7.351562 -6.628906 7.351562 -6.628906 L 7.351562 -8.433594 C 7.351562 -8.433594 6.992188 -7.769531 3.988281 -7.769531 L 3.117188 -7.769531 L 3.117188 -11.019531 C 3.117188 -11.511719 3.191406 -11.875 3.285156 -12.101562 Z M 3.285156 -12.101562 "/></g></g></g><g fill="#59170f" fill-opacity="1"><g transform="translate(273.316022, 314.167979)"><g><path d="M 14.476562 -12.671875 L 10.21875 -12.671875 C 10.21875 -12.671875 10.921875 -12.578125 10.410156 -11.019531 L 7.808594 -3.152344 L 5.222656 -11.019531 C 4.691406 -12.578125 5.394531 -12.671875 5.394531 -12.671875 L 1.0625 -12.671875 C 1.0625 -12.671875 1.765625 -12.578125 1.652344 -11.019531 L 1.007812 -1.597656 C 0.910156 -0.09375 0.191406 0 0.191406 0 L 2.601562 0 C 2.601562 0 1.898438 -0.09375 2.015625 -1.613281 L 2.660156 -11.054688 C 2.679688 -11.265625 2.699219 -11.457031 2.734375 -11.625 C 2.8125 -11.457031 2.886719 -11.265625 2.964844 -11.054688 L 6.609375 0 C 7.730469 0 7.980469 -0.625 8.113281 -1.042969 L 11.417969 -11.054688 C 11.472656 -11.226562 11.53125 -11.378906 11.589844 -11.511719 C 11.609375 -11.378906 11.625 -11.226562 11.644531 -11.054688 L 12.292969 -1.613281 C 12.40625 -0.09375 11.703125 0 11.703125 0 L 15.351562 0 C 15.351562 0 14.648438 -0.09375 14.53125 -1.597656 L 13.886719 -11.019531 C 13.773438 -12.578125 14.476562 -12.671875 14.476562 -12.671875 Z M 14.476562 -12.671875 "/></g></g></g><g fill="#59170f" fill-opacity="1"><g transform="translate(293.243869, 314.167979)"><g><path d="M 3.285156 -12.101562 L 4.902344 -12.101562 C 9.042969 -12.101562 9.535156 -10.21875 9.535156 -10.21875 L 9.554688 -12.671875 L 0.191406 -12.671875 C 0.191406 -12.671875 0.875 -12.558594 0.875 -11.054688 L 0.875 -1.613281 C 0.875 -0.09375 0.191406 0 0.191406 0 L 9.554688 0 L 9.535156 -2.449219 C 9.535156 -2.449219 9.042969 -0.550781 4.902344 -0.550781 L 3.285156 -0.550781 C 3.191406 -0.796875 3.117188 -1.121094 3.117188 -1.597656 L 3.117188 -7.296875 L 3.988281 -7.296875 C 6.992188 -7.296875 7.351562 -6.628906 7.351562 -6.628906 L 7.351562 -8.433594 C 7.351562 -8.433594 6.992188 -7.769531 3.988281 -7.769531 L 3.117188 -7.769531 L 3.117188 -11.019531 C 3.117188 -11.511719 3.191406 -11.875 3.285156 -12.101562 Z M 3.285156 -12.101562 "/></g></g></g><g fill="#59170f" fill-opacity="1"><g transform="translate(307.377917, 314.167979)"><g><path d="M 8.625 0 L 9.613281 0 L 9.613281 -11.054688 C 9.613281 -12.558594 10.316406 -12.671875 10.316406 -12.671875 L 7.902344 -12.671875 C 7.902344 -12.671875 8.625 -12.578125 8.625 -11.019531 L 8.625 -3.835938 L 4.3125 -11.054688 C 3.4375 -12.558594 4.066406 -12.671875 4.066406 -12.671875 L 0.191406 -12.671875 C 0.191406 -12.671875 0.894531 -12.578125 0.894531 -11.019531 L 0.894531 -1.597656 C 0.894531 -0.09375 0.191406 0 0.191406 0 L 2.601562 0 C 2.601562 0 1.898438 -0.09375 1.898438 -1.613281 L 1.898438 -11.054688 C 1.898438 -11.152344 1.898438 -11.246094 1.917969 -11.324219 C 1.976562 -11.226562 2.03125 -11.132812 2.109375 -11.019531 Z M 8.625 0 "/></g></g></g><g fill="#59170f" fill-opacity="1"><g transform="translate(322.271806, 314.167979)"><g><path d="M 0.191406 -12.671875 L 0.191406 -10.21875 C 0.191406 -10.21875 0.625 -11.855469 4.007812 -12.082031 C 4.101562 -11.855469 4.160156 -11.511719 4.160156 -11.054688 L 4.160156 -1.613281 C 4.160156 -0.113281 3.476562 0 3.476562 0 L 7.125 0 C 7.125 0 6.402344 -0.09375 6.402344 -1.652344 L 6.402344 -11.074219 C 6.402344 -11.53125 6.476562 -11.855469 6.554688 -12.082031 C 9.972656 -11.855469 10.410156 -10.21875 10.410156 -10.21875 L 10.429688 -12.671875 Z M 0.191406 -12.671875 "/></g></g></g><g fill="#59170f" fill-opacity="1"><g transform="translate(105.907036, 337.349978)"><g><path d="M 7.703125 -9.109375 C 7.867188 -9.109375 8.015625 -9.050781 8.140625 -8.9375 C 8.265625 -8.832031 8.328125 -8.695312 8.328125 -8.53125 C 8.328125 -8.4375 8.304688 -8.335938 8.265625 -8.234375 L 4.953125 -0.40625 C 4.890625 -0.269531 4.800781 -0.164062 4.6875 -0.09375 C 4.582031 -0.03125 4.46875 0 4.34375 0 C 4.226562 -0.0078125 4.117188 -0.046875 4.015625 -0.109375 C 3.921875 -0.171875 3.84375 -0.265625 3.78125 -0.390625 L 0.46875 -8.234375 C 0.4375 -8.304688 0.421875 -8.398438 0.421875 -8.515625 C 0.421875 -8.691406 0.484375 -8.835938 0.609375 -8.953125 C 0.742188 -9.066406 0.890625 -9.125 1.046875 -9.125 C 1.304688 -9.125 1.492188 -8.984375 1.609375 -8.703125 L 4.453125 -2.015625 L 7.125 -8.71875 C 7.1875 -8.84375 7.265625 -8.9375 7.359375 -9 C 7.460938 -9.070312 7.578125 -9.109375 7.703125 -9.109375 Z M 7.703125 -9.109375 "/></g></g></g><g fill="#59170f" fill-opacity="1"><g transform="translate(118.54038, 337.349978)"><g><path d="M 6.453125 -6.90625 C 6.628906 -6.90625 6.773438 -6.84375 6.890625 -6.71875 C 7.015625 -6.601562 7.078125 -6.453125 7.078125 -6.265625 L 7.078125 -0.625 C 7.078125 -0.445312 7.015625 -0.296875 6.890625 -0.171875 C 6.773438 -0.0546875 6.628906 0 6.453125 0 C 6.265625 0 6.113281 -0.0546875 6 -0.171875 C 5.894531 -0.285156 5.84375 -0.4375 5.84375 -0.625 L 5.84375 -0.96875 C 5.613281 -0.65625 5.300781 -0.394531 4.90625 -0.1875 C 4.519531 0.0195312 4.101562 0.125 3.65625 0.125 C 3.0625 0.125 2.523438 -0.0234375 2.046875 -0.328125 C 1.566406 -0.628906 1.1875 -1.050781 0.90625 -1.59375 C 0.632812 -2.132812 0.5 -2.742188 0.5 -3.421875 C 0.5 -4.097656 0.632812 -4.707031 0.90625 -5.25 C 1.1875 -5.789062 1.5625 -6.210938 2.03125 -6.515625 C 2.507812 -6.816406 3.035156 -6.96875 3.609375 -6.96875 C 4.066406 -6.96875 4.492188 -6.867188 4.890625 -6.671875 C 5.285156 -6.484375 5.601562 -6.242188 5.84375 -5.953125 L 5.84375 -6.265625 C 5.84375 -6.441406 5.894531 -6.59375 6 -6.71875 C 6.113281 -6.84375 6.265625 -6.90625 6.453125 -6.90625 Z M 3.796875 -1.015625 C 4.203125 -1.015625 4.5625 -1.117188 4.875 -1.328125 C 5.195312 -1.535156 5.445312 -1.820312 5.625 -2.1875 C 5.800781 -2.550781 5.890625 -2.960938 5.890625 -3.421875 C 5.890625 -3.867188 5.800781 -4.273438 5.625 -4.640625 C 5.445312 -5.003906 5.195312 -5.289062 4.875 -5.5 C 4.5625 -5.71875 4.203125 -5.828125 3.796875 -5.828125 C 3.390625 -5.828125 3.023438 -5.722656 2.703125 -5.515625 C 2.390625 -5.304688 2.144531 -5.019531 1.96875 -4.65625 C 1.789062 -4.289062 1.703125 -3.878906 1.703125 -3.421875 C 1.703125 -2.960938 1.789062 -2.550781 1.96875 -2.1875 C 2.144531 -1.820312 2.390625 -1.535156 2.703125 -1.328125 C 3.023438 -1.117188 3.390625 -1.015625 3.796875 -1.015625 Z M 3.796875 -1.015625 "/></g></g></g><g fill="#59170f" fill-opacity="1"><g transform="translate(130.419948, 337.349978)"><g><path d="M 3.890625 -6.96875 C 4.566406 -6.96875 5.132812 -6.859375 5.59375 -6.640625 C 6.050781 -6.421875 6.28125 -6.144531 6.28125 -5.8125 C 6.28125 -5.664062 6.234375 -5.53125 6.140625 -5.40625 C 6.046875 -5.289062 5.921875 -5.234375 5.765625 -5.234375 C 5.660156 -5.234375 5.570312 -5.25 5.5 -5.28125 C 5.4375 -5.320312 5.347656 -5.378906 5.234375 -5.453125 C 5.179688 -5.503906 5.097656 -5.566406 4.984375 -5.640625 C 4.890625 -5.691406 4.742188 -5.734375 4.546875 -5.765625 C 4.359375 -5.804688 4.1875 -5.828125 4.03125 -5.828125 C 3.582031 -5.828125 3.179688 -5.722656 2.828125 -5.515625 C 2.484375 -5.304688 2.210938 -5.015625 2.015625 -4.640625 C 1.828125 -4.273438 1.734375 -3.867188 1.734375 -3.421875 C 1.734375 -2.960938 1.828125 -2.550781 2.015625 -2.1875 C 2.203125 -1.820312 2.460938 -1.535156 2.796875 -1.328125 C 3.140625 -1.117188 3.53125 -1.015625 3.96875 -1.015625 C 4.414062 -1.015625 4.78125 -1.082031 5.0625 -1.21875 C 5.113281 -1.257812 5.191406 -1.316406 5.296875 -1.390625 C 5.390625 -1.460938 5.46875 -1.515625 5.53125 -1.546875 C 5.59375 -1.578125 5.671875 -1.59375 5.765625 -1.59375 C 5.941406 -1.59375 6.078125 -1.539062 6.171875 -1.4375 C 6.273438 -1.332031 6.328125 -1.191406 6.328125 -1.015625 C 6.328125 -0.828125 6.210938 -0.644531 5.984375 -0.46875 C 5.753906 -0.289062 5.445312 -0.144531 5.0625 -0.03125 C 4.675781 0.0703125 4.265625 0.125 3.828125 0.125 C 3.160156 0.125 2.578125 -0.0234375 2.078125 -0.328125 C 1.578125 -0.640625 1.1875 -1.066406 0.90625 -1.609375 C 0.632812 -2.148438 0.5 -2.753906 0.5 -3.421875 C 0.5 -4.085938 0.640625 -4.691406 0.921875 -5.234375 C 1.210938 -5.773438 1.613281 -6.195312 2.125 -6.5 C 2.644531 -6.8125 3.234375 -6.96875 3.890625 -6.96875 Z M 3.890625 -6.96875 "/></g></g></g><g fill="#59170f" fill-opacity="1"><g transform="translate(140.999912, 337.349978)"><g><path d="M 6.453125 -6.90625 C 6.628906 -6.90625 6.773438 -6.84375 6.890625 -6.71875 C 7.015625 -6.601562 7.078125 -6.453125 7.078125 -6.265625 L 7.078125 -0.625 C 7.078125 -0.445312 7.015625 -0.296875 6.890625 -0.171875 C 6.773438 -0.0546875 6.628906 0 6.453125 0 C 6.265625 0 6.113281 -0.0546875 6 -0.171875 C 5.894531 -0.285156 5.84375 -0.4375 5.84375 -0.625 L 5.84375 -0.96875 C 5.613281 -0.65625 5.300781 -0.394531 4.90625 -0.1875 C 4.519531 0.0195312 4.101562 0.125 3.65625 0.125 C 3.0625 0.125 2.523438 -0.0234375 2.046875 -0.328125 C 1.566406 -0.628906 1.1875 -1.050781 0.90625 -1.59375 C 0.632812 -2.132812 0.5 -2.742188 0.5 -3.421875 C 0.5 -4.097656 0.632812 -4.707031 0.90625 -5.25 C 1.1875 -5.789062 1.5625 -6.210938 2.03125 -6.515625 C 2.507812 -6.816406 3.035156 -6.96875 3.609375 -6.96875 C 4.066406 -6.96875 4.492188 -6.867188 4.890625 -6.671875 C 5.285156 -6.484375 5.601562 -6.242188 5.84375 -5.953125 L 5.84375 -6.265625 C 5.84375 -6.441406 5.894531 -6.59375 6 -6.71875 C 6.113281 -6.84375 6.265625 -6.90625 6.453125 -6.90625 Z M 3.796875 -1.015625 C 4.203125 -1.015625 4.5625 -1.117188 4.875 -1.328125 C 5.195312 -1.535156 5.445312 -1.820312 5.625 -2.1875 C 5.800781 -2.550781 5.890625 -2.960938 5.890625 -3.421875 C 5.890625 -3.867188 5.800781 -4.273438 5.625 -4.640625 C 5.445312 -5.003906 5.195312 -5.289062 4.875 -5.5 C 4.5625 -5.71875 4.203125 -5.828125 3.796875 -5.828125 C 3.390625 -5.828125 3.023438 -5.722656 2.703125 -5.515625 C 2.390625 -5.304688 2.144531 -5.019531 1.96875 -4.65625 C 1.789062 -4.289062 1.703125 -3.878906 1.703125 -3.421875 C 1.703125 -2.960938 1.789062 -2.550781 1.96875 -2.1875 C 2.144531 -1.820312 2.390625 -1.535156 2.703125 -1.328125 C 3.023438 -1.117188 3.390625 -1.015625 3.796875 -1.015625 Z M 3.796875 -1.015625 "/></g></g></g><g fill="#59170f" fill-opacity="1"><g transform="translate(152.87948, 337.349978)"><g><path d="M 2.765625 -5.609375 L 2.765625 -1.734375 C 2.765625 -1.296875 2.960938 -1.078125 3.359375 -1.078125 C 3.410156 -1.078125 3.488281 -1.09375 3.59375 -1.125 C 3.695312 -1.15625 3.78125 -1.171875 3.84375 -1.171875 C 3.957031 -1.171875 4.050781 -1.125 4.125 -1.03125 C 4.207031 -0.9375 4.25 -0.8125 4.25 -0.65625 C 4.25 -0.476562 4.144531 -0.320312 3.9375 -0.1875 C 3.726562 -0.0625 3.492188 0 3.234375 0 C 2.953125 0 2.691406 -0.03125 2.453125 -0.09375 C 2.210938 -0.15625 2 -0.304688 1.8125 -0.546875 C 1.625 -0.796875 1.53125 -1.171875 1.53125 -1.671875 L 1.53125 -5.609375 L 0.78125 -5.609375 C 0.613281 -5.609375 0.472656 -5.660156 0.359375 -5.765625 C 0.253906 -5.867188 0.203125 -6.003906 0.203125 -6.171875 C 0.203125 -6.335938 0.253906 -6.472656 0.359375 -6.578125 C 0.472656 -6.679688 0.613281 -6.734375 0.78125 -6.734375 L 1.53125 -6.734375 L 1.53125 -7.828125 C 1.53125 -8.003906 1.585938 -8.148438 1.703125 -8.265625 C 1.828125 -8.390625 1.976562 -8.453125 2.15625 -8.453125 C 2.332031 -8.453125 2.476562 -8.390625 2.59375 -8.265625 C 2.707031 -8.148438 2.765625 -8.003906 2.765625 -7.828125 L 2.765625 -6.734375 L 3.84375 -6.734375 C 4.007812 -6.734375 4.144531 -6.675781 4.25 -6.5625 C 4.363281 -6.457031 4.421875 -6.320312 4.421875 -6.15625 C 4.421875 -6 4.363281 -5.867188 4.25 -5.765625 C 4.144531 -5.660156 4.007812 -5.609375 3.84375 -5.609375 Z M 2.765625 -5.609375 "/></g></g></g><g fill="#59170f" fill-opacity="1"><g transform="translate(161.717986, 337.349978)"><g><path d="M 2.09375 -0.625 C 2.09375 -0.445312 2.03125 -0.296875 1.90625 -0.171875 C 1.789062 -0.0546875 1.644531 0 1.46875 0 C 1.289062 0 1.144531 -0.0546875 1.03125 -0.171875 C 0.914062 -0.296875 0.859375 -0.445312 0.859375 -0.625 L 0.859375 -6.25 C 0.859375 -6.425781 0.914062 -6.570312 1.03125 -6.6875 C 1.144531 -6.8125 1.289062 -6.875 1.46875 -6.875 C 1.644531 -6.875 1.789062 -6.8125 1.90625 -6.6875 C 2.03125 -6.570312 2.09375 -6.425781 2.09375 -6.25 Z M 1.46875 -7.734375 C 1.21875 -7.734375 1.039062 -7.78125 0.9375 -7.875 C 0.832031 -7.96875 0.78125 -8.113281 0.78125 -8.3125 L 0.78125 -8.515625 C 0.78125 -8.722656 0.835938 -8.867188 0.953125 -8.953125 C 1.066406 -9.046875 1.242188 -9.09375 1.484375 -9.09375 C 1.734375 -9.09375 1.910156 -9.046875 2.015625 -8.953125 C 2.117188 -8.859375 2.171875 -8.710938 2.171875 -8.515625 L 2.171875 -8.3125 C 2.171875 -8.101562 2.113281 -7.953125 2 -7.859375 C 1.894531 -7.773438 1.71875 -7.734375 1.46875 -7.734375 Z M 1.46875 -7.734375 "/></g></g></g><g fill="#59170f" fill-opacity="1"><g transform="translate(168.568093, 337.349978)"><g><path d="M 7.375 -3.40625 C 7.375 -2.726562 7.222656 -2.117188 6.921875 -1.578125 C 6.617188 -1.046875 6.203125 -0.628906 5.671875 -0.328125 C 5.148438 -0.0234375 4.570312 0.125 3.9375 0.125 C 3.300781 0.125 2.722656 -0.0234375 2.203125 -0.328125 C 1.679688 -0.628906 1.265625 -1.046875 0.953125 -1.578125 C 0.648438 -2.117188 0.5 -2.726562 0.5 -3.40625 C 0.5 -4.082031 0.648438 -4.691406 0.953125 -5.234375 C 1.265625 -5.785156 1.679688 -6.210938 2.203125 -6.515625 C 2.722656 -6.816406 3.300781 -6.96875 3.9375 -6.96875 C 4.570312 -6.96875 5.148438 -6.816406 5.671875 -6.515625 C 6.203125 -6.210938 6.617188 -5.785156 6.921875 -5.234375 C 7.222656 -4.691406 7.375 -4.082031 7.375 -3.40625 Z M 6.140625 -3.40625 C 6.140625 -3.875 6.039062 -4.289062 5.84375 -4.65625 C 5.644531 -5.03125 5.378906 -5.316406 5.046875 -5.515625 C 4.710938 -5.722656 4.34375 -5.828125 3.9375 -5.828125 C 3.53125 -5.828125 3.160156 -5.722656 2.828125 -5.515625 C 2.492188 -5.316406 2.226562 -5.03125 2.03125 -4.65625 C 1.832031 -4.289062 1.734375 -3.875 1.734375 -3.40625 C 1.734375 -2.945312 1.832031 -2.535156 2.03125 -2.171875 C 2.226562 -1.804688 2.492188 -1.519531 2.828125 -1.3125 C 3.160156 -1.113281 3.53125 -1.015625 3.9375 -1.015625 C 4.34375 -1.015625 4.710938 -1.113281 5.046875 -1.3125 C 5.378906 -1.519531 5.644531 -1.804688 5.84375 -2.171875 C 6.039062 -2.535156 6.140625 -2.945312 6.140625 -3.40625 Z M 6.140625 -3.40625 "/></g></g></g><g fill="#59170f" fill-opacity="1"><g transform="translate(180.34369, 337.349978)"><g><path d="M 4.390625 -6.96875 C 5.953125 -6.96875 6.734375 -6.03125 6.734375 -4.15625 L 6.734375 -0.625 C 6.734375 -0.445312 6.675781 -0.296875 6.5625 -0.171875 C 6.445312 -0.0546875 6.296875 0 6.109375 0 C 5.929688 0 5.785156 -0.0546875 5.671875 -0.171875 C 5.554688 -0.296875 5.5 -0.445312 5.5 -0.625 L 5.5 -4.140625 C 5.5 -4.648438 5.378906 -5.054688 5.140625 -5.359375 C 4.910156 -5.671875 4.53125 -5.828125 4 -5.828125 C 3.65625 -5.828125 3.34375 -5.75 3.0625 -5.59375 C 2.78125 -5.445312 2.554688 -5.242188 2.390625 -4.984375 C 2.234375 -4.734375 2.15625 -4.453125 2.15625 -4.140625 L 2.15625 -0.625 C 2.15625 -0.445312 2.097656 -0.296875 1.984375 -0.171875 C 1.867188 -0.0546875 1.71875 0 1.53125 0 C 1.351562 0 1.207031 -0.0546875 1.09375 -0.171875 C 0.976562 -0.285156 0.921875 -0.4375 0.921875 -0.625 L 0.921875 -6.1875 C 0.921875 -6.363281 0.976562 -6.507812 1.09375 -6.625 C 1.21875 -6.75 1.363281 -6.8125 1.53125 -6.8125 C 1.71875 -6.8125 1.867188 -6.75 1.984375 -6.625 C 2.097656 -6.507812 2.15625 -6.363281 2.15625 -6.1875 L 2.15625 -5.734375 C 2.382812 -6.078125 2.695312 -6.367188 3.09375 -6.609375 C 3.5 -6.847656 3.929688 -6.96875 4.390625 -6.96875 Z M 4.390625 -6.96875 "/></g></g></g><g fill="#59170f" fill-opacity="1"><g transform="translate(191.89836, 337.349978)"><g/></g></g><g fill="#59170f" fill-opacity="1"><g transform="translate(199.398274, 337.349978)"><g><path d="M 8.015625 -1.046875 C 8.097656 -0.984375 8.164062 -0.90625 8.21875 -0.8125 C 8.269531 -0.71875 8.296875 -0.625 8.296875 -0.53125 C 8.296875 -0.351562 8.234375 -0.21875 8.109375 -0.125 C 7.992188 -0.0390625 7.859375 0 7.703125 0 C 7.535156 0 7.394531 -0.0351562 7.28125 -0.109375 C 7.019531 -0.253906 6.804688 -0.488281 6.640625 -0.8125 C 6.472656 -1.144531 6.390625 -1.632812 6.390625 -2.28125 C 6.390625 -2.707031 6.257812 -3.023438 6 -3.234375 C 5.738281 -3.441406 5.398438 -3.546875 4.984375 -3.546875 L 2.359375 -3.546875 L 2.359375 -0.625 C 2.359375 -0.4375 2.304688 -0.285156 2.203125 -0.171875 C 2.097656 -0.0546875 1.96875 0 1.8125 0 C 1.613281 0 1.441406 -0.0546875 1.296875 -0.171875 C 1.148438 -0.296875 1.078125 -0.445312 1.078125 -0.625 L 1.078125 -8.46875 C 1.078125 -8.644531 1.132812 -8.789062 1.25 -8.90625 C 1.375 -9.03125 1.523438 -9.09375 1.703125 -9.09375 L 5.359375 -9.09375 C 5.828125 -9.09375 6.253906 -8.976562 6.640625 -8.75 C 7.035156 -8.519531 7.347656 -8.203125 7.578125 -7.796875 C 7.816406 -7.398438 7.9375 -6.953125 7.9375 -6.453125 C 7.9375 -5.960938 7.804688 -5.503906 7.546875 -5.078125 C 7.285156 -4.660156 6.945312 -4.347656 6.53125 -4.140625 C 6.851562 -3.984375 7.109375 -3.753906 7.296875 -3.453125 C 7.484375 -3.160156 7.585938 -2.820312 7.609375 -2.4375 C 7.640625 -1.9375 7.675781 -1.597656 7.71875 -1.421875 C 7.757812 -1.242188 7.859375 -1.117188 8.015625 -1.046875 Z M 5.328125 -4.625 C 5.546875 -4.644531 5.75 -4.734375 5.9375 -4.890625 C 6.132812 -5.046875 6.296875 -5.253906 6.421875 -5.515625 C 6.546875 -5.785156 6.609375 -6.082031 6.609375 -6.40625 C 6.609375 -6.820312 6.476562 -7.175781 6.21875 -7.46875 C 5.96875 -7.757812 5.660156 -7.90625 5.296875 -7.90625 L 2.359375 -7.90625 L 2.359375 -4.625 Z M 5.328125 -4.625 "/></g></g></g><g fill="#59170f" fill-opacity="1"><g transform="translate(212.135575, 337.349978)"><g><path d="M 6.90625 -3.671875 C 6.894531 -3.515625 6.828125 -3.378906 6.703125 -3.265625 C 6.585938 -3.160156 6.445312 -3.109375 6.28125 -3.109375 L 1.703125 -3.109375 C 1.765625 -2.472656 2.003906 -1.960938 2.421875 -1.578125 C 2.847656 -1.203125 3.363281 -1.015625 3.96875 -1.015625 C 4.382812 -1.015625 4.722656 -1.070312 4.984375 -1.1875 C 5.242188 -1.3125 5.472656 -1.46875 5.671875 -1.65625 C 5.796875 -1.738281 5.921875 -1.78125 6.046875 -1.78125 C 6.191406 -1.78125 6.3125 -1.726562 6.40625 -1.625 C 6.507812 -1.519531 6.5625 -1.398438 6.5625 -1.265625 C 6.5625 -1.078125 6.476562 -0.910156 6.3125 -0.765625 C 6.050781 -0.515625 5.710938 -0.300781 5.296875 -0.125 C 4.890625 0.0390625 4.46875 0.125 4.03125 0.125 C 3.332031 0.125 2.710938 -0.0195312 2.171875 -0.3125 C 1.640625 -0.601562 1.226562 -1.015625 0.9375 -1.546875 C 0.644531 -2.078125 0.5 -2.675781 0.5 -3.34375 C 0.5 -4.070312 0.648438 -4.707031 0.953125 -5.25 C 1.253906 -5.800781 1.648438 -6.222656 2.140625 -6.515625 C 2.628906 -6.816406 3.15625 -6.96875 3.71875 -6.96875 C 4.269531 -6.96875 4.785156 -6.820312 5.265625 -6.53125 C 5.753906 -6.25 6.144531 -5.859375 6.4375 -5.359375 C 6.738281 -4.859375 6.894531 -4.296875 6.90625 -3.671875 Z M 3.71875 -5.828125 C 3.226562 -5.828125 2.804688 -5.6875 2.453125 -5.40625 C 2.097656 -5.132812 1.863281 -4.710938 1.75 -4.140625 L 5.59375 -4.140625 L 5.59375 -4.25 C 5.550781 -4.707031 5.34375 -5.082031 4.96875 -5.375 C 4.601562 -5.675781 4.1875 -5.828125 3.71875 -5.828125 Z M 3.71875 -5.828125 "/></g></g></g><g fill="#59170f" fill-opacity="1"><g transform="translate(223.443321, 337.349978)"><g><path d="M 4.390625 -6.96875 C 5.953125 -6.96875 6.734375 -6.03125 6.734375 -4.15625 L 6.734375 -0.625 C 6.734375 -0.445312 6.675781 -0.296875 6.5625 -0.171875 C 6.445312 -0.0546875 6.296875 0 6.109375 0 C 5.929688 0 5.785156 -0.0546875 5.671875 -0.171875 C 5.554688 -0.296875 5.5 -0.445312 5.5 -0.625 L 5.5 -4.140625 C 5.5 -4.648438 5.378906 -5.054688 5.140625 -5.359375 C 4.910156 -5.671875 4.53125 -5.828125 4 -5.828125 C 3.65625 -5.828125 3.34375 -5.75 3.0625 -5.59375 C 2.78125 -5.445312 2.554688 -5.242188 2.390625 -4.984375 C 2.234375 -4.734375 2.15625 -4.453125 2.15625 -4.140625 L 2.15625 -0.625 C 2.15625 -0.445312 2.097656 -0.296875 1.984375 -0.171875 C 1.867188 -0.0546875 1.71875 0 1.53125 0 C 1.351562 0 1.207031 -0.0546875 1.09375 -0.171875 C 0.976562 -0.285156 0.921875 -0.4375 0.921875 -0.625 L 0.921875 -6.1875 C 0.921875 -6.363281 0.976562 -6.507812 1.09375 -6.625 C 1.21875 -6.75 1.363281 -6.8125 1.53125 -6.8125 C 1.71875 -6.8125 1.867188 -6.75 1.984375 -6.625 C 2.097656 -6.507812 2.15625 -6.363281 2.15625 -6.1875 L 2.15625 -5.734375 C 2.382812 -6.078125 2.695312 -6.367188 3.09375 -6.609375 C 3.5 -6.847656 3.929688 -6.96875 4.390625 -6.96875 Z M 4.390625 -6.96875 "/></g></g></g><g fill="#59170f" fill-opacity="1"><g transform="translate(234.997985, 337.349978)"><g><path d="M 2.765625 -5.609375 L 2.765625 -1.734375 C 2.765625 -1.296875 2.960938 -1.078125 3.359375 -1.078125 C 3.410156 -1.078125 3.488281 -1.09375 3.59375 -1.125 C 3.695312 -1.15625 3.78125 -1.171875 3.84375 -1.171875 C 3.957031 -1.171875 4.050781 -1.125 4.125 -1.03125 C 4.207031 -0.9375 4.25 -0.8125 4.25 -0.65625 C 4.25 -0.476562 4.144531 -0.320312 3.9375 -0.1875 C 3.726562 -0.0625 3.492188 0 3.234375 0 C 2.953125 0 2.691406 -0.03125 2.453125 -0.09375 C 2.210938 -0.15625 2 -0.304688 1.8125 -0.546875 C 1.625 -0.796875 1.53125 -1.171875 1.53125 -1.671875 L 1.53125 -5.609375 L 0.78125 -5.609375 C 0.613281 -5.609375 0.472656 -5.660156 0.359375 -5.765625 C 0.253906 -5.867188 0.203125 -6.003906 0.203125 -6.171875 C 0.203125 -6.335938 0.253906 -6.472656 0.359375 -6.578125 C 0.472656 -6.679688 0.613281 -6.734375 0.78125 -6.734375 L 1.53125 -6.734375 L 1.53125 -7.828125 C 1.53125 -8.003906 1.585938 -8.148438 1.703125 -8.265625 C 1.828125 -8.390625 1.976562 -8.453125 2.15625 -8.453125 C 2.332031 -8.453125 2.476562 -8.390625 2.59375 -8.265625 C 2.707031 -8.148438 2.765625 -8.003906 2.765625 -7.828125 L 2.765625 -6.734375 L 3.84375 -6.734375 C 4.007812 -6.734375 4.144531 -6.675781 4.25 -6.5625 C 4.363281 -6.457031 4.421875 -6.320312 4.421875 -6.15625 C 4.421875 -6 4.363281 -5.867188 4.25 -5.765625 C 4.144531 -5.660156 4.007812 -5.609375 3.84375 -5.609375 Z M 2.765625 -5.609375 "/></g></g></g><g fill="#59170f" fill-opacity="1"><g transform="translate(243.836486, 337.349978)"><g><path d="M 6.453125 -6.90625 C 6.628906 -6.90625 6.773438 -6.84375 6.890625 -6.71875 C 7.015625 -6.601562 7.078125 -6.453125 7.078125 -6.265625 L 7.078125 -0.625 C 7.078125 -0.445312 7.015625 -0.296875 6.890625 -0.171875 C 6.773438 -0.0546875 6.628906 0 6.453125 0 C 6.265625 0 6.113281 -0.0546875 6 -0.171875 C 5.894531 -0.285156 5.84375 -0.4375 5.84375 -0.625 L 5.84375 -0.96875 C 5.613281 -0.65625 5.300781 -0.394531 4.90625 -0.1875 C 4.519531 0.0195312 4.101562 0.125 3.65625 0.125 C 3.0625 0.125 2.523438 -0.0234375 2.046875 -0.328125 C 1.566406 -0.628906 1.1875 -1.050781 0.90625 -1.59375 C 0.632812 -2.132812 0.5 -2.742188 0.5 -3.421875 C 0.5 -4.097656 0.632812 -4.707031 0.90625 -5.25 C 1.1875 -5.789062 1.5625 -6.210938 2.03125 -6.515625 C 2.507812 -6.816406 3.035156 -6.96875 3.609375 -6.96875 C 4.066406 -6.96875 4.492188 -6.867188 4.890625 -6.671875 C 5.285156 -6.484375 5.601562 -6.242188 5.84375 -5.953125 L 5.84375 -6.265625 C 5.84375 -6.441406 5.894531 -6.59375 6 -6.71875 C 6.113281 -6.84375 6.265625 -6.90625 6.453125 -6.90625 Z M 3.796875 -1.015625 C 4.203125 -1.015625 4.5625 -1.117188 4.875 -1.328125 C 5.195312 -1.535156 5.445312 -1.820312 5.625 -2.1875 C 5.800781 -2.550781 5.890625 -2.960938 5.890625 -3.421875 C 5.890625 -3.867188 5.800781 -4.273438 5.625 -4.640625 C 5.445312 -5.003906 5.195312 -5.289062 4.875 -5.5 C 4.5625 -5.71875 4.203125 -5.828125 3.796875 -5.828125 C 3.390625 -5.828125 3.023438 -5.722656 2.703125 -5.515625 C 2.390625 -5.304688 2.144531 -5.019531 1.96875 -4.65625 C 1.789062 -4.289062 1.703125 -3.878906 1.703125 -3.421875 C 1.703125 -2.960938 1.789062 -2.550781 1.96875 -2.1875 C 2.144531 -1.820312 2.390625 -1.535156 2.703125 -1.328125 C 3.023438 -1.117188 3.390625 -1.015625 3.796875 -1.015625 Z M 3.796875 -1.015625 "/></g></g></g><g fill="#59170f" fill-opacity="1"><g transform="translate(255.716047, 337.349978)"><g><path d="M 2.265625 -0.625 C 2.265625 -0.445312 2.203125 -0.296875 2.078125 -0.171875 C 1.953125 -0.0546875 1.804688 0 1.640625 0 C 1.460938 0 1.316406 -0.0546875 1.203125 -0.171875 C 1.085938 -0.296875 1.03125 -0.445312 1.03125 -0.625 L 1.03125 -9 C 1.03125 -9.164062 1.085938 -9.3125 1.203125 -9.4375 C 1.328125 -9.5625 1.476562 -9.625 1.65625 -9.625 C 1.820312 -9.625 1.960938 -9.5625 2.078125 -9.4375 C 2.203125 -9.3125 2.265625 -9.164062 2.265625 -9 Z M 2.265625 -0.625 "/></g></g></g><g fill="#59170f" fill-opacity="1"><g transform="translate(262.904058, 337.349978)"><g><path d="M 0.53125 -1.0625 C 0.457031 -1.1875 0.421875 -1.304688 0.421875 -1.421875 C 0.421875 -1.585938 0.507812 -1.734375 0.6875 -1.859375 C 0.769531 -1.921875 0.867188 -1.953125 0.984375 -1.953125 C 1.140625 -1.953125 1.285156 -1.882812 1.421875 -1.75 C 1.679688 -1.457031 1.957031 -1.238281 2.25 -1.09375 C 2.550781 -0.945312 2.910156 -0.875 3.328125 -0.875 C 3.660156 -0.882812 3.953125 -0.957031 4.203125 -1.09375 C 4.453125 -1.238281 4.578125 -1.472656 4.578125 -1.796875 C 4.578125 -2.085938 4.445312 -2.3125 4.1875 -2.46875 C 3.9375 -2.625 3.5625 -2.769531 3.0625 -2.90625 C 2.582031 -3.03125 2.179688 -3.160156 1.859375 -3.296875 C 1.535156 -3.441406 1.265625 -3.648438 1.046875 -3.921875 C 0.828125 -4.203125 0.71875 -4.5625 0.71875 -5 C 0.71875 -5.394531 0.828125 -5.738281 1.046875 -6.03125 C 1.265625 -6.320312 1.554688 -6.550781 1.921875 -6.71875 C 2.296875 -6.882812 2.703125 -6.96875 3.140625 -6.96875 C 3.546875 -6.96875 3.953125 -6.890625 4.359375 -6.734375 C 4.773438 -6.578125 5.113281 -6.335938 5.375 -6.015625 C 5.476562 -5.898438 5.53125 -5.773438 5.53125 -5.640625 C 5.53125 -5.503906 5.460938 -5.367188 5.328125 -5.234375 C 5.242188 -5.160156 5.132812 -5.125 5 -5.125 C 4.84375 -5.125 4.71875 -5.175781 4.625 -5.28125 C 4.445312 -5.488281 4.222656 -5.644531 3.953125 -5.75 C 3.691406 -5.863281 3.398438 -5.921875 3.078125 -5.921875 C 2.753906 -5.921875 2.472656 -5.851562 2.234375 -5.71875 C 2.003906 -5.59375 1.890625 -5.367188 1.890625 -5.046875 C 1.898438 -4.742188 2.03125 -4.515625 2.28125 -4.359375 C 2.539062 -4.210938 2.9375 -4.070312 3.46875 -3.9375 C 3.925781 -3.8125 4.304688 -3.679688 4.609375 -3.546875 C 4.910156 -3.410156 5.164062 -3.203125 5.375 -2.921875 C 5.582031 -2.648438 5.6875 -2.296875 5.6875 -1.859375 C 5.6875 -1.453125 5.566406 -1.097656 5.328125 -0.796875 C 5.097656 -0.492188 4.796875 -0.265625 4.421875 -0.109375 C 4.046875 0.046875 3.644531 0.125 3.21875 0.125 C 2.675781 0.125 2.171875 0.03125 1.703125 -0.15625 C 1.242188 -0.34375 0.851562 -0.644531 0.53125 -1.0625 Z M 0.53125 -1.0625 "/></g></g></g></svg>