<svg xmlns="http://www.w3.org/2000/svg" xmlns:xlink="http://www.w3.org/1999/xlink" width="500" zoomAndPan="magnify" viewBox="0 0 375 374.999991" height="500" preserveAspectRatio="xMidYMid meet" version="1.0"><defs><g/><clipPath id="id1"><path d="M 88.0625 9.976562 L 286.8125 9.976562 L 286.8125 287.863281 L 88.0625 287.863281 Z M 88.0625 9.976562 " clip-rule="nonzero"/></clipPath></defs><rect x="-37.5" width="450" fill="#ffffff" y="-37.499999" height="449.999989" fill-opacity="1"/><rect x="-37.5" width="450" fill="#fca695" y="-37.499999" height="449.999989" fill-opacity="1"/><rect x="-37.5" width="450" fill="#ffffff" y="-37.499999" height="449.999989" fill-opacity="1"/><rect x="-37.5" width="450" fill="#fca695" y="-37.499999" height="449.999989" fill-opacity="1"/><g clip-path="url(#id1)"><path fill="#59170f" d="M 127.722656 286.34375 C 129.015625 285.242188 130.351562 284.113281 131.878906 283.035156 C 137.332031 279.183594 147.117188 275.816406 157.480469 272.25 C 175.597656 266.015625 194.328125 259.566406 194.449219 249.0625 C 194.453125 249.023438 194.457031 248.988281 194.457031 248.949219 C 194.457031 248.886719 194.457031 248.808594 194.453125 248.726562 C 194.453125 248.675781 194.453125 248.644531 194.453125 248.628906 L 194.441406 248.628906 C 194.441406 248.621094 194.441406 248.605469 194.4375 248.59375 C 194.179688 244.972656 191.789062 242.765625 188.367188 241.183594 C 205.179688 244.121094 216.871094 249.203125 229.128906 254.542969 C 244.109375 261.070312 259.609375 267.816406 285.308594 270.171875 L 285.308594 286.34375 Z M 89.582031 238.988281 C 97.394531 235.691406 105.867188 231.324219 114.832031 226.699219 C 131.023438 218.347656 148.863281 209.160156 166.003906 204.855469 C 160.703125 207.082031 156.734375 210 154.574219 213.441406 C 152.421875 216.871094 152.105469 220.71875 153.664062 224.574219 C 157.695312 234.5625 168.402344 237.203125 177.851562 239.53125 C 185.773438 241.484375 192.628906 243.171875 192.929688 248.84375 C 192.929688 248.882812 192.929688 248.921875 192.929688 248.957031 C 192.929688 258.441406 173.832031 265.015625 156.984375 270.8125 C 146.519531 274.417969 136.632812 277.820312 131.003906 281.792969 C 129.304688 282.992188 127.847656 284.234375 126.441406 285.4375 C 126.082031 285.742188 125.730469 286.046875 125.375 286.34375 L 89.582031 286.34375 Z M 140.925781 23.285156 L 174.398438 115.28125 C 170.929688 116.628906 167.714844 118.492188 164.84375 120.796875 L 107.734375 52.707031 C 116.394531 40.554688 127.742188 30.441406 140.925781 23.285156 Z M 267.160156 52.707031 L 210.058594 120.78125 C 207.148438 118.4375 203.929688 116.589844 200.503906 115.261719 L 233.96875 23.285156 C 247.148438 30.441406 258.496094 40.554688 267.160156 52.707031 Z M 285.308594 188.554688 C 237.792969 173.171875 206.667969 161.929688 184.546875 153.628906 C 197.292969 152.445312 210.074219 150.824219 222.746094 148.773438 C 222.753906 148.773438 222.757812 148.777344 222.761719 148.777344 C 222.765625 148.777344 222.773438 148.777344 222.78125 148.777344 C 222.824219 148.777344 222.859375 148.757812 222.898438 148.75 C 229.574219 147.671875 236.21875 146.484375 242.8125 145.175781 C 257.457031 142.261719 271.367188 140.042969 285.308594 138.375 Z M 228.207031 194.347656 C 220.929688 188.367188 204.265625 182.59375 177.59375 180.625 C 131.058594 177.1875 112.914062 156.527344 112.410156 144.308594 C 112.210938 139.480469 114.714844 136.179688 119.109375 135.46875 C 132.648438 135.480469 141.105469 138.710938 166.113281 148.261719 C 188.785156 156.921875 223.011719 169.992188 285.308594 190.152344 L 285.308594 223.3125 C 266.886719 218.886719 246.503906 205.957031 232.9375 197.339844 C 231.261719 196.277344 229.683594 195.273438 228.207031 194.347656 Z M 285.308594 109.394531 L 285.308594 136.84375 C 271.269531 138.519531 257.265625 140.753906 242.515625 143.683594 C 236.210938 144.9375 229.855469 146.074219 223.476562 147.113281 C 223.207031 141.582031 221.695312 136.273438 219.082031 131.527344 L 284.085938 93.984375 C 284.886719 99.007812 285.308594 104.152344 285.308594 109.394531 Z M 283.800781 92.394531 L 218.316406 130.214844 C 216.753906 127.640625 214.863281 125.25 212.660156 123.09375 C 212.191406 122.632812 211.707031 122.195312 211.214844 121.761719 L 268.066406 53.988281 C 275.867188 65.304688 281.332031 78.339844 283.800781 92.394531 Z M 175.609375 116.429688 C 175.613281 116.425781 175.617188 116.429688 175.621094 116.425781 C 175.625 116.425781 175.628906 116.421875 175.632812 116.421875 C 179.332031 115.074219 183.316406 114.339844 187.445312 114.339844 C 191.539062 114.339844 195.457031 115.035156 199.089844 116.316406 C 199.144531 116.355469 199.199219 116.402344 199.269531 116.425781 C 199.34375 116.457031 199.421875 116.464844 199.5 116.46875 C 203.164062 117.808594 206.523438 119.75 209.472656 122.171875 C 209.515625 122.269531 209.578125 122.359375 209.664062 122.433594 C 209.75 122.5 209.847656 122.546875 209.945312 122.574219 C 212.855469 125.054688 215.339844 128.015625 217.285156 131.347656 C 217.300781 131.445312 217.332031 131.539062 217.382812 131.628906 C 217.425781 131.707031 217.496094 131.753906 217.5625 131.808594 C 220.15625 136.414062 221.722656 141.695312 221.96875 147.359375 C 208.472656 149.53125 194.863281 151.226562 181.300781 152.40625 C 175.902344 150.375 171.058594 148.523438 166.65625 146.84375 C 161.722656 144.957031 157.433594 143.320312 153.613281 141.902344 C 156.082031 129.929688 164.59375 120.445312 175.609375 116.429688 Z M 186.683594 112.855469 C 182.910156 112.933594 179.261719 113.597656 175.828125 114.765625 L 142.289062 22.585938 C 155.597656 15.628906 170.683594 11.640625 186.683594 11.515625 Z M 188.207031 112.839844 L 188.207031 11.515625 C 204.207031 11.640625 219.292969 15.628906 232.601562 22.585938 L 199.074219 114.738281 C 195.609375 113.5625 191.953125 112.917969 188.207031 112.839844 Z M 106.824219 53.988281 L 163.6875 121.777344 C 160.917969 124.199219 158.503906 127.035156 156.578125 130.214844 L 91.089844 92.394531 C 93.5625 78.335938 99.027344 65.304688 106.824219 53.988281 Z M 90.804688 93.984375 L 155.835938 131.539062 C 154.171875 134.5625 152.925781 137.859375 152.179688 141.371094 C 137.398438 135.925781 129.84375 133.949219 119.027344 133.949219 C 109.628906 133.949219 99.984375 135.679688 89.582031 139.203125 L 89.582031 109.394531 C 89.582031 104.152344 90.007812 99.007812 90.804688 93.984375 Z M 181.160156 200.921875 C 159.359375 202.015625 135.335938 214.410156 114.140625 225.347656 C 105.421875 229.839844 97.179688 234.089844 89.582031 237.332031 L 89.582031 140.800781 C 98.417969 137.769531 106.6875 136.054688 114.710938 135.605469 C 112.136719 137.425781 110.730469 140.515625 110.890625 144.371094 C 111.203125 151.886719 117.140625 160.324219 126.773438 166.945312 C 135.292969 172.796875 151.007812 180.183594 177.480469 182.136719 C 196.0625 183.507812 209.140625 186.644531 217.710938 190.171875 C 217.773438 190.226562 217.84375 190.277344 217.929688 190.308594 C 219.988281 191.105469 223.222656 193.023438 227.277344 195.5625 C 229.445312 197.351562 230.605469 199.074219 230.886719 200.550781 C 231.214844 202.269531 230.125 203.191406 229.15625 203.660156 C 226.234375 205.070312 222.554688 204.246094 216.980469 203 C 210.191406 201.476562 200.890625 199.394531 187.394531 200.292969 C 185.253906 200.433594 183.183594 200.648438 181.1875 200.921875 C 181.175781 200.925781 181.167969 200.917969 181.160156 200.921875 Z M 178.214844 238.054688 C 169.121094 235.8125 158.8125 233.273438 155.074219 224.003906 C 153.6875 220.574219 153.953125 217.289062 155.859375 214.25 C 160.101562 207.492188 171.925781 202.839844 187.496094 201.808594 C 200.773438 200.925781 209.949219 202.984375 216.648438 204.480469 C 222.324219 205.75 226.421875 206.667969 229.8125 205.03125 C 231.835938 204.054688 232.769531 202.316406 232.378906 200.265625 C 232.261719 199.636719 232.015625 198.988281 231.671875 198.335938 C 231.824219 198.433594 231.96875 198.527344 232.125 198.625 C 245.863281 207.347656 266.546875 220.476562 285.308594 224.878906 L 285.308594 268.640625 C 259.9375 266.300781 244.578125 259.621094 229.734375 253.152344 C 215.90625 247.125 201.609375 240.890625 179.425781 238.351562 C 179.023438 238.253906 178.617188 238.15625 178.214844 238.054688 Z M 285.417969 92.808594 C 285.425781 92.691406 285.40625 92.570312 285.359375 92.457031 C 282.832031 77.804688 277.09375 64.246094 268.890625 52.523438 C 268.855469 52.371094 268.78125 52.21875 268.652344 52.109375 C 268.625 52.089844 268.589844 52.078125 268.5625 52.0625 C 259.621094 39.441406 247.828125 28.980469 234.113281 21.652344 C 234.035156 21.566406 233.941406 21.496094 233.824219 21.453125 C 233.777344 21.433594 233.726562 21.4375 233.679688 21.429688 C 219.859375 14.132812 204.132812 9.980469 187.449219 9.980469 C 187.449219 9.980469 187.449219 9.976562 187.445312 9.976562 C 187.445312 9.976562 187.445312 9.980469 187.441406 9.980469 C 170.757812 9.980469 155.035156 14.132812 141.210938 21.429688 C 141.164062 21.4375 141.113281 21.433594 141.066406 21.453125 C 140.949219 21.496094 140.855469 21.566406 140.777344 21.652344 C 127.0625 28.980469 115.273438 39.441406 106.328125 52.0625 C 106.300781 52.078125 106.269531 52.089844 106.238281 52.109375 C 106.109375 52.21875 106.039062 52.367188 106 52.523438 C 97.796875 64.246094 92.058594 77.808594 89.535156 92.460938 C 89.484375 92.574219 89.464844 92.691406 89.472656 92.804688 C 88.5625 98.203125 88.0625 103.738281 88.0625 109.394531 L 88.0625 287.105469 C 88.0625 287.523438 88.402344 287.863281 88.824219 287.863281 L 286.070312 287.863281 C 286.488281 287.863281 286.828125 287.523438 286.828125 287.105469 L 286.828125 109.394531 C 286.828125 103.742188 286.328125 98.203125 285.417969 92.808594 " fill-opacity="1" fill-rule="nonzero"/></g><g fill="#59170f" fill-opacity="1"><g transform="translate(11.5276, 317.567967)"><g><path d="M 3.769531 -5.359375 L 10.601562 -5.359375 L 10.601562 -1.953125 C 10.601562 -0.113281 9.75 0 9.75 0 L 14.164062 0 C 14.164062 0 13.3125 -0.113281 13.3125 -1.929688 L 13.3125 -13.335938 C 13.3125 -15.222656 14.164062 -15.335938 14.164062 -15.335938 L 9.75 -15.335938 C 9.75 -15.335938 10.601562 -15.199219 10.601562 -13.382812 L 10.601562 -6.347656 L 3.769531 -6.347656 L 3.769531 -13.335938 C 3.769531 -15.222656 4.644531 -15.335938 4.644531 -15.335938 L 0.230469 -15.335938 C 0.230469 -15.335938 1.058594 -15.199219 1.058594 -13.382812 L 1.058594 -1.953125 C 1.058594 -0.113281 0.230469 0 0.230469 0 L 4.644531 0 C 4.644531 0 3.769531 -0.113281 3.769531 -1.929688 Z M 3.769531 -5.359375 "/></g></g></g><g fill="#59170f" fill-opacity="1"><g transform="translate(31.233758, 317.567967)"><g><path d="M 8.253906 -15.523438 C 3.816406 -15.523438 0.230469 -11.980469 0.230469 -7.632812 C 0.230469 -3.265625 3.816406 0.277344 8.253906 0.277344 C 12.671875 0.277344 16.28125 -3.265625 16.28125 -7.632812 C 16.28125 -11.980469 12.671875 -15.523438 8.253906 -15.523438 Z M 8.253906 -0.667969 C 5.335938 -0.667969 2.964844 -3.863281 2.964844 -7.796875 C 2.964844 -11.726562 5.335938 -14.921875 8.253906 -14.921875 C 11.175781 -14.921875 13.542969 -11.726562 13.542969 -7.796875 C 13.542969 -3.863281 11.175781 -0.667969 8.253906 -0.667969 Z M 8.253906 -0.667969 "/></g></g></g><g fill="#59170f" fill-opacity="1"><g transform="translate(53.055197, 317.567967)"><g><path d="M 11.910156 -5.886719 L 13.359375 -2 C 14.074219 -0.113281 15.085938 0 15.085938 0 L 16.96875 0 L 22.007812 -13.40625 C 22.671875 -15.222656 23.59375 -15.335938 23.59375 -15.335938 L 20.648438 -15.335938 C 20.648438 -15.335938 21.453125 -15.222656 20.765625 -13.382812 L 16.488281 -1.953125 C 16.417969 -1.769531 16.347656 -1.632812 16.28125 -1.496094 C 16.210938 -1.632812 16.164062 -1.769531 16.097656 -1.953125 L 11.796875 -13.382812 C 11.105469 -15.222656 11.910156 -15.335938 11.910156 -15.335938 L 7.496094 -15.335938 C 7.496094 -15.335938 8.394531 -15.222656 9.082031 -13.40625 L 11.289062 -7.519531 L 9.199219 -1.953125 C 9.152344 -1.769531 9.082031 -1.632812 9.015625 -1.496094 C 8.945312 -1.632812 8.875 -1.769531 8.808594 -1.953125 L 4.53125 -13.382812 C 3.839844 -15.222656 4.644531 -15.335938 4.644531 -15.335938 L 0.230469 -15.335938 C 0.230469 -15.335938 1.125 -15.222656 1.816406 -13.40625 L 6.09375 -2 C 6.804688 -0.113281 7.816406 0 7.816406 0 L 9.703125 0 Z M 11.910156 -5.886719 "/></g></g></g><g fill="#59170f" fill-opacity="1"><g transform="translate(82.188173, 317.567967)"><g><path d="M 11.566406 0 L 11.542969 -2.964844 C 11.542969 -2.964844 10.945312 -0.667969 5.933594 -0.667969 L 3.976562 -0.667969 C 3.863281 -0.964844 3.769531 -1.355469 3.769531 -1.929688 L 3.769531 -13.335938 C 3.769531 -15.222656 4.644531 -15.335938 4.644531 -15.335938 L 0.230469 -15.335938 C 0.230469 -15.335938 1.058594 -15.199219 1.058594 -13.382812 L 1.058594 -1.953125 C 1.058594 -0.113281 0.230469 0 0.230469 0 Z M 11.566406 0 "/></g></g></g><g fill="#59170f" fill-opacity="1"><g transform="translate(99.296202, 317.567967)"><g><path d="M 11.886719 0 L 16.304688 0 C 16.304688 0 15.40625 -0.113281 14.71875 -1.929688 L 10.441406 -13.335938 C 9.679688 -15.128906 9.152344 -15.335938 8.714844 -15.335938 L 5.980469 -15.335938 C 5.980469 -15.335938 6.804688 -15.222656 6.09375 -13.335938 L 1.816406 -1.929688 C 1.125 -0.113281 0.230469 0 0.230469 0 L 3.148438 0 C 3.148438 0 2.34375 -0.113281 3.035156 -1.953125 L 4.324219 -5.359375 L 10.714844 -5.359375 L 12.003906 -1.953125 C 12.691406 -0.113281 11.886719 0 11.886719 0 Z M 4.691406 -6.347656 L 7.335938 -13.382812 C 7.382812 -13.542969 7.449219 -13.703125 7.519531 -13.84375 C 7.589844 -13.703125 7.65625 -13.542969 7.703125 -13.382812 L 10.347656 -6.347656 Z M 4.691406 -6.347656 "/></g></g></g><g fill="#59170f" fill-opacity="1"><g transform="translate(121.140638, 317.567967)"><g><path d="M 10.441406 0 L 11.636719 0 L 11.636719 -13.382812 C 11.636719 -15.199219 12.484375 -15.335938 12.484375 -15.335938 L 9.566406 -15.335938 C 9.566406 -15.335938 10.441406 -15.222656 10.441406 -13.335938 L 10.441406 -4.644531 L 5.21875 -13.382812 C 4.160156 -15.199219 4.921875 -15.335938 4.921875 -15.335938 L 0.230469 -15.335938 C 0.230469 -15.335938 1.082031 -15.222656 1.082031 -13.335938 L 1.082031 -1.929688 C 1.082031 -0.113281 0.230469 0 0.230469 0 L 3.148438 0 C 3.148438 0 2.300781 -0.113281 2.300781 -1.953125 L 2.300781 -13.382812 C 2.300781 -13.5 2.300781 -13.613281 2.324219 -13.703125 C 2.390625 -13.589844 2.460938 -13.476562 2.550781 -13.335938 Z M 10.441406 0 "/></g></g></g><g fill="#59170f" fill-opacity="1"><g transform="translate(139.168354, 317.567967)"><g><path d="M 5.933594 -15.335938 C 5.816406 -15.335938 0.230469 -15.335938 0.230469 -15.335938 C 0.230469 -15.335938 1.058594 -15.199219 1.058594 -13.382812 L 1.058594 -1.953125 C 1.058594 -0.113281 0.230469 0 0.230469 0 L 6.140625 0 C 10.371094 -0.183594 13.3125 -3.542969 13.3125 -7.65625 C 13.3125 -11.910156 10.371094 -15.335938 5.933594 -15.335938 Z M 5.289062 -0.757812 C 4.804688 -0.757812 4.324219 -0.851562 3.863281 -1.011719 C 3.816406 -1.265625 3.769531 -1.5625 3.769531 -1.929688 L 3.769531 -13.335938 C 3.769531 -13.84375 3.839844 -14.234375 3.933594 -14.511719 C 4.460938 -14.625 4.851562 -14.625 5.289062 -14.625 C 8.210938 -14.625 10.578125 -11.660156 10.578125 -7.839844 C 10.578125 -4 8.210938 -0.757812 5.289062 -0.757812 Z M 5.289062 -0.757812 "/></g></g></g><g fill="#59170f" fill-opacity="1"><g transform="translate(158.023798, 317.567967)"><g/></g></g><g fill="#59170f" fill-opacity="1"><g transform="translate(167.981233, 317.567967)"><g><path d="M 17.523438 -15.335938 L 12.371094 -15.335938 C 12.371094 -15.335938 13.222656 -15.222656 12.601562 -13.335938 L 9.449219 -3.816406 L 6.324219 -13.335938 C 5.679688 -15.222656 6.53125 -15.335938 6.53125 -15.335938 L 1.289062 -15.335938 C 1.289062 -15.335938 2.136719 -15.222656 2 -13.335938 L 1.21875 -1.929688 C 1.105469 -0.113281 0.230469 0 0.230469 0 L 3.148438 0 C 3.148438 0 2.300781 -0.113281 2.4375 -1.953125 L 3.21875 -13.382812 C 3.242188 -13.636719 3.265625 -13.867188 3.3125 -14.074219 C 3.402344 -13.867188 3.496094 -13.636719 3.585938 -13.382812 L 8.003906 0 C 9.359375 0 9.65625 -0.757812 9.820312 -1.265625 L 13.820312 -13.382812 C 13.890625 -13.589844 13.957031 -13.773438 14.027344 -13.933594 C 14.050781 -13.773438 14.074219 -13.589844 14.097656 -13.382812 L 14.878906 -1.953125 C 15.015625 -0.113281 14.164062 0 14.164062 0 L 18.578125 0 C 18.578125 0 17.730469 -0.113281 17.589844 -1.929688 L 16.808594 -13.335938 C 16.671875 -15.222656 17.523438 -15.335938 17.523438 -15.335938 Z M 17.523438 -15.335938 "/></g></g></g><g fill="#59170f" fill-opacity="1"><g transform="translate(192.101899, 317.567967)"><g><path d="M 11.886719 0 L 16.304688 0 C 16.304688 0 15.40625 -0.113281 14.71875 -1.929688 L 10.441406 -13.335938 C 9.679688 -15.128906 9.152344 -15.335938 8.714844 -15.335938 L 5.980469 -15.335938 C 5.980469 -15.335938 6.804688 -15.222656 6.09375 -13.335938 L 1.816406 -1.929688 C 1.125 -0.113281 0.230469 0 0.230469 0 L 3.148438 0 C 3.148438 0 2.34375 -0.113281 3.035156 -1.953125 L 4.324219 -5.359375 L 10.714844 -5.359375 L 12.003906 -1.953125 C 12.691406 -0.113281 11.886719 0 11.886719 0 Z M 4.691406 -6.347656 L 7.335938 -13.382812 C 7.382812 -13.542969 7.449219 -13.703125 7.519531 -13.84375 C 7.589844 -13.703125 7.65625 -13.542969 7.703125 -13.382812 L 10.347656 -6.347656 Z M 4.691406 -6.347656 "/></g></g></g><g fill="#59170f" fill-opacity="1"><g transform="translate(213.946334, 317.567967)"><g><path d="M 10.441406 0 L 11.636719 0 L 11.636719 -13.382812 C 11.636719 -15.199219 12.484375 -15.335938 12.484375 -15.335938 L 9.566406 -15.335938 C 9.566406 -15.335938 10.441406 -15.222656 10.441406 -13.335938 L 10.441406 -4.644531 L 5.21875 -13.382812 C 4.160156 -15.199219 4.921875 -15.335938 4.921875 -15.335938 L 0.230469 -15.335938 C 0.230469 -15.335938 1.082031 -15.222656 1.082031 -13.335938 L 1.082031 -1.929688 C 1.082031 -0.113281 0.230469 0 0.230469 0 L 3.148438 0 C 3.148438 0 2.300781 -0.113281 2.300781 -1.953125 L 2.300781 -13.382812 C 2.300781 -13.5 2.300781 -13.613281 2.324219 -13.703125 C 2.390625 -13.589844 2.460938 -13.476562 2.550781 -13.335938 Z M 10.441406 0 "/></g></g></g><g fill="#59170f" fill-opacity="1"><g transform="translate(231.974051, 317.567967)"><g><path d="M 11.886719 0 L 16.304688 0 C 16.304688 0 15.40625 -0.113281 14.71875 -1.929688 L 10.441406 -13.335938 C 9.679688 -15.128906 9.152344 -15.335938 8.714844 -15.335938 L 5.980469 -15.335938 C 5.980469 -15.335938 6.804688 -15.222656 6.09375 -13.335938 L 1.816406 -1.929688 C 1.125 -0.113281 0.230469 0 0.230469 0 L 3.148438 0 C 3.148438 0 2.34375 -0.113281 3.035156 -1.953125 L 4.324219 -5.359375 L 10.714844 -5.359375 L 12.003906 -1.953125 C 12.691406 -0.113281 11.886719 0 11.886719 0 Z M 4.691406 -6.347656 L 7.335938 -13.382812 C 7.382812 -13.542969 7.449219 -13.703125 7.519531 -13.84375 C 7.589844 -13.703125 7.65625 -13.542969 7.703125 -13.382812 L 10.347656 -6.347656 Z M 4.691406 -6.347656 "/></g></g></g><g fill="#59170f" fill-opacity="1"><g transform="translate(253.818486, 317.567967)"><g><path d="M 14.902344 0 C 14.902344 0 14.027344 -0.113281 14.027344 -1.929688 L 14.027344 -6.046875 C 14.027344 -7.933594 14.902344 -8.046875 14.902344 -8.046875 L 6 -8.046875 L 6.023438 -5.082031 C 6.023438 -5.082031 6.578125 -7.21875 11.128906 -7.359375 C 11.246094 -7.082031 11.3125 -6.667969 11.3125 -6.09375 C 11.3125 -6.09375 11.3125 -6.09375 11.3125 -3.105469 C 11.3125 -0.597656 9.40625 -0.667969 8.253906 -0.667969 C 5.335938 -0.667969 2.964844 -3.863281 2.964844 -7.796875 C 2.964844 -12.140625 5.175781 -14.808594 8.578125 -14.808594 C 11.3125 -14.808594 12.394531 -12.898438 12.484375 -11.246094 L 14.855469 -12.417969 C 13.820312 -14.464844 11.472656 -15.382812 8.554688 -15.382812 C 3.058594 -15.382812 0.230469 -11.542969 0.230469 -7.613281 C 0.230469 -3.265625 3.816406 0.277344 8.253906 0.277344 C 10.832031 0.277344 11.910156 -0.277344 14.902344 0 Z M 14.902344 0 "/></g></g></g><g fill="#59170f" fill-opacity="1"><g transform="translate(274.260402, 317.567967)"><g><path d="M 3.976562 -14.648438 L 5.933594 -14.648438 C 10.945312 -14.648438 11.542969 -12.371094 11.542969 -12.371094 L 11.566406 -15.335938 L 0.230469 -15.335938 C 0.230469 -15.335938 1.058594 -15.199219 1.058594 -13.382812 L 1.058594 -1.953125 C 1.058594 -0.113281 0.230469 0 0.230469 0 L 11.566406 0 L 11.542969 -2.964844 C 11.542969 -2.964844 10.945312 -0.667969 5.933594 -0.667969 L 3.976562 -0.667969 C 3.863281 -0.964844 3.769531 -1.355469 3.769531 -1.929688 L 3.769531 -8.832031 L 4.828125 -8.832031 C 8.460938 -8.832031 8.898438 -8.023438 8.898438 -8.023438 L 8.898438 -10.210938 C 8.898438 -10.210938 8.460938 -9.40625 4.828125 -9.40625 L 3.769531 -9.40625 L 3.769531 -13.335938 C 3.769531 -13.933594 3.863281 -14.371094 3.976562 -14.648438 Z M 3.976562 -14.648438 "/></g></g></g><g fill="#59170f" fill-opacity="1"><g transform="translate(291.368426, 317.567967)"><g><path d="M 17.523438 -15.335938 L 12.371094 -15.335938 C 12.371094 -15.335938 13.222656 -15.222656 12.601562 -13.335938 L 9.449219 -3.816406 L 6.324219 -13.335938 C 5.679688 -15.222656 6.53125 -15.335938 6.53125 -15.335938 L 1.289062 -15.335938 C 1.289062 -15.335938 2.136719 -15.222656 2 -13.335938 L 1.21875 -1.929688 C 1.105469 -0.113281 0.230469 0 0.230469 0 L 3.148438 0 C 3.148438 0 2.300781 -0.113281 2.4375 -1.953125 L 3.21875 -13.382812 C 3.242188 -13.636719 3.265625 -13.867188 3.3125 -14.074219 C 3.402344 -13.867188 3.496094 -13.636719 3.585938 -13.382812 L 8.003906 0 C 9.359375 0 9.65625 -0.757812 9.820312 -1.265625 L 13.820312 -13.382812 C 13.890625 -13.589844 13.957031 -13.773438 14.027344 -13.933594 C 14.050781 -13.773438 14.074219 -13.589844 14.097656 -13.382812 L 14.878906 -1.953125 C 15.015625 -0.113281 14.164062 0 14.164062 0 L 18.578125 0 C 18.578125 0 17.730469 -0.113281 17.589844 -1.929688 L 16.808594 -13.335938 C 16.671875 -15.222656 17.523438 -15.335938 17.523438 -15.335938 Z M 17.523438 -15.335938 "/></g></g></g><g fill="#59170f" fill-opacity="1"><g transform="translate(315.489091, 317.567967)"><g><path d="M 3.976562 -14.648438 L 5.933594 -14.648438 C 10.945312 -14.648438 11.542969 -12.371094 11.542969 -12.371094 L 11.566406 -15.335938 L 0.230469 -15.335938 C 0.230469 -15.335938 1.058594 -15.199219 1.058594 -13.382812 L 1.058594 -1.953125 C 1.058594 -0.113281 0.230469 0 0.230469 0 L 11.566406 0 L 11.542969 -2.964844 C 11.542969 -2.964844 10.945312 -0.667969 5.933594 -0.667969 L 3.976562 -0.667969 C 3.863281 -0.964844 3.769531 -1.355469 3.769531 -1.929688 L 3.769531 -8.832031 L 4.828125 -8.832031 C 8.460938 -8.832031 8.898438 -8.023438 8.898438 -8.023438 L 8.898438 -10.210938 C 8.898438 -10.210938 8.460938 -9.40625 4.828125 -9.40625 L 3.769531 -9.40625 L 3.769531 -13.335938 C 3.769531 -13.933594 3.863281 -14.371094 3.976562 -14.648438 Z M 3.976562 -14.648438 "/></g></g></g><g fill="#59170f" fill-opacity="1"><g transform="translate(332.597114, 317.567967)"><g><path d="M 10.441406 0 L 11.636719 0 L 11.636719 -13.382812 C 11.636719 -15.199219 12.484375 -15.335938 12.484375 -15.335938 L 9.566406 -15.335938 C 9.566406 -15.335938 10.441406 -15.222656 10.441406 -13.335938 L 10.441406 -4.644531 L 5.21875 -13.382812 C 4.160156 -15.199219 4.921875 -15.335938 4.921875 -15.335938 L 0.230469 -15.335938 C 0.230469 -15.335938 1.082031 -15.222656 1.082031 -13.335938 L 1.082031 -1.929688 C 1.082031 -0.113281 0.230469 0 0.230469 0 L 3.148438 0 C 3.148438 0 2.300781 -0.113281 2.300781 -1.953125 L 2.300781 -13.382812 C 2.300781 -13.5 2.300781 -13.613281 2.324219 -13.703125 C 2.390625 -13.589844 2.460938 -13.476562 2.550781 -13.335938 Z M 10.441406 0 "/></g></g></g><g fill="#59170f" fill-opacity="1"><g transform="translate(350.62483, 317.567967)"><g><path d="M 0.230469 -15.335938 L 0.230469 -12.371094 C 0.230469 -12.371094 0.757812 -14.347656 4.851562 -14.625 C 4.96875 -14.347656 5.035156 -13.933594 5.035156 -13.382812 L 5.035156 -1.953125 C 5.035156 -0.136719 4.207031 0 4.207031 0 L 8.625 0 C 8.625 0 7.75 -0.113281 7.75 -2 L 7.75 -13.40625 C 7.75 -13.957031 7.839844 -14.347656 7.933594 -14.625 C 12.074219 -14.347656 12.601562 -12.371094 12.601562 -12.371094 L 12.625 -15.335938 Z M 0.230469 -15.335938 "/></g></g></g><g fill="#59170f" fill-opacity="1"><g transform="translate(87.067964, 352.599968)"><g><path d="M 9.46875 -11.21875 C 9.6875 -11.21875 9.867188 -11.144531 10.015625 -11 C 10.171875 -10.863281 10.25 -10.695312 10.25 -10.5 C 10.25 -10.394531 10.222656 -10.273438 10.171875 -10.140625 L 6.09375 -0.5 C 6.019531 -0.332031 5.910156 -0.207031 5.765625 -0.125 C 5.628906 -0.0390625 5.488281 0 5.34375 0 C 5.207031 -0.0078125 5.078125 -0.0507812 4.953125 -0.125 C 4.828125 -0.207031 4.726562 -0.328125 4.65625 -0.484375 L 0.578125 -10.140625 C 0.535156 -10.222656 0.515625 -10.335938 0.515625 -10.484375 C 0.515625 -10.703125 0.59375 -10.878906 0.75 -11.015625 C 0.90625 -11.160156 1.082031 -11.234375 1.28125 -11.234375 C 1.601562 -11.234375 1.835938 -11.0625 1.984375 -10.71875 L 5.46875 -2.484375 L 8.765625 -10.734375 C 8.835938 -10.878906 8.9375 -10.992188 9.0625 -11.078125 C 9.1875 -11.171875 9.320312 -11.21875 9.46875 -11.21875 Z M 9.46875 -11.21875 "/></g></g></g><g fill="#59170f" fill-opacity="1"><g transform="translate(102.617379, 352.599968)"><g><path d="M 7.9375 -8.5 C 8.15625 -8.5 8.335938 -8.425781 8.484375 -8.28125 C 8.628906 -8.132812 8.703125 -7.945312 8.703125 -7.71875 L 8.703125 -0.765625 C 8.703125 -0.554688 8.628906 -0.375 8.484375 -0.21875 C 8.335938 -0.0703125 8.15625 0 7.9375 0 C 7.707031 0 7.523438 -0.0703125 7.390625 -0.21875 C 7.253906 -0.363281 7.1875 -0.546875 7.1875 -0.765625 L 7.1875 -1.1875 C 6.90625 -0.8125 6.523438 -0.492188 6.046875 -0.234375 C 5.566406 0.0234375 5.050781 0.15625 4.5 0.15625 C 3.769531 0.15625 3.109375 -0.0234375 2.515625 -0.390625 C 1.921875 -0.765625 1.457031 -1.285156 1.125 -1.953125 C 0.789062 -2.617188 0.625 -3.367188 0.625 -4.203125 C 0.625 -5.035156 0.789062 -5.785156 1.125 -6.453125 C 1.457031 -7.117188 1.914062 -7.640625 2.5 -8.015625 C 3.09375 -8.390625 3.742188 -8.578125 4.453125 -8.578125 C 5.015625 -8.578125 5.535156 -8.457031 6.015625 -8.21875 C 6.503906 -7.988281 6.894531 -7.691406 7.1875 -7.328125 L 7.1875 -7.71875 C 7.1875 -7.9375 7.253906 -8.117188 7.390625 -8.265625 C 7.523438 -8.421875 7.707031 -8.5 7.9375 -8.5 Z M 4.671875 -1.25 C 5.171875 -1.25 5.613281 -1.375 6 -1.625 C 6.394531 -1.882812 6.703125 -2.238281 6.921875 -2.6875 C 7.140625 -3.132812 7.25 -3.640625 7.25 -4.203125 C 7.25 -4.765625 7.140625 -5.269531 6.921875 -5.71875 C 6.703125 -6.164062 6.394531 -6.519531 6 -6.78125 C 5.613281 -7.039062 5.171875 -7.171875 4.671875 -7.171875 C 4.171875 -7.171875 3.722656 -7.039062 3.328125 -6.78125 C 2.941406 -6.53125 2.640625 -6.179688 2.421875 -5.734375 C 2.203125 -5.285156 2.09375 -4.773438 2.09375 -4.203125 C 2.09375 -3.640625 2.203125 -3.132812 2.421875 -2.6875 C 2.640625 -2.238281 2.941406 -1.882812 3.328125 -1.625 C 3.722656 -1.375 4.171875 -1.25 4.671875 -1.25 Z M 4.671875 -1.25 "/></g></g></g><g fill="#59170f" fill-opacity="1"><g transform="translate(117.239011, 352.599968)"><g><path d="M 4.78125 -8.578125 C 5.625 -8.578125 6.328125 -8.441406 6.890625 -8.171875 C 7.453125 -7.910156 7.734375 -7.570312 7.734375 -7.15625 C 7.734375 -6.96875 7.671875 -6.800781 7.546875 -6.65625 C 7.429688 -6.519531 7.285156 -6.453125 7.109375 -6.453125 C 6.960938 -6.453125 6.847656 -6.472656 6.765625 -6.515625 C 6.691406 -6.554688 6.585938 -6.625 6.453125 -6.71875 C 6.390625 -6.78125 6.285156 -6.851562 6.140625 -6.9375 C 6.015625 -7.007812 5.832031 -7.066406 5.59375 -7.109375 C 5.363281 -7.148438 5.148438 -7.171875 4.953125 -7.171875 C 4.398438 -7.171875 3.910156 -7.039062 3.484375 -6.78125 C 3.054688 -6.53125 2.722656 -6.175781 2.484375 -5.71875 C 2.253906 -5.269531 2.140625 -4.765625 2.140625 -4.203125 C 2.140625 -3.640625 2.253906 -3.132812 2.484375 -2.6875 C 2.710938 -2.238281 3.035156 -1.882812 3.453125 -1.625 C 3.867188 -1.375 4.34375 -1.25 4.875 -1.25 C 5.4375 -1.25 5.882812 -1.332031 6.21875 -1.5 C 6.300781 -1.539062 6.40625 -1.613281 6.53125 -1.71875 C 6.632812 -1.800781 6.722656 -1.863281 6.796875 -1.90625 C 6.878906 -1.945312 6.984375 -1.96875 7.109375 -1.96875 C 7.316406 -1.96875 7.484375 -1.898438 7.609375 -1.765625 C 7.734375 -1.628906 7.796875 -1.457031 7.796875 -1.25 C 7.796875 -1.019531 7.648438 -0.796875 7.359375 -0.578125 C 7.078125 -0.359375 6.695312 -0.179688 6.21875 -0.046875 C 5.75 0.0859375 5.242188 0.15625 4.703125 0.15625 C 3.890625 0.15625 3.171875 -0.03125 2.546875 -0.40625 C 1.929688 -0.78125 1.457031 -1.300781 1.125 -1.96875 C 0.789062 -2.632812 0.625 -3.378906 0.625 -4.203125 C 0.625 -5.023438 0.800781 -5.769531 1.15625 -6.4375 C 1.507812 -7.101562 2 -7.625 2.625 -8 C 3.25 -8.382812 3.96875 -8.578125 4.78125 -8.578125 Z M 4.78125 -8.578125 "/></g></g></g><g fill="#59170f" fill-opacity="1"><g transform="translate(130.261033, 352.599968)"><g><path d="M 7.9375 -8.5 C 8.15625 -8.5 8.335938 -8.425781 8.484375 -8.28125 C 8.628906 -8.132812 8.703125 -7.945312 8.703125 -7.71875 L 8.703125 -0.765625 C 8.703125 -0.554688 8.628906 -0.375 8.484375 -0.21875 C 8.335938 -0.0703125 8.15625 0 7.9375 0 C 7.707031 0 7.523438 -0.0703125 7.390625 -0.21875 C 7.253906 -0.363281 7.1875 -0.546875 7.1875 -0.765625 L 7.1875 -1.1875 C 6.90625 -0.8125 6.523438 -0.492188 6.046875 -0.234375 C 5.566406 0.0234375 5.050781 0.15625 4.5 0.15625 C 3.769531 0.15625 3.109375 -0.0234375 2.515625 -0.390625 C 1.921875 -0.765625 1.457031 -1.285156 1.125 -1.953125 C 0.789062 -2.617188 0.625 -3.367188 0.625 -4.203125 C 0.625 -5.035156 0.789062 -5.785156 1.125 -6.453125 C 1.457031 -7.117188 1.914062 -7.640625 2.5 -8.015625 C 3.09375 -8.390625 3.742188 -8.578125 4.453125 -8.578125 C 5.015625 -8.578125 5.535156 -8.457031 6.015625 -8.21875 C 6.503906 -7.988281 6.894531 -7.691406 7.1875 -7.328125 L 7.1875 -7.71875 C 7.1875 -7.9375 7.253906 -8.117188 7.390625 -8.265625 C 7.523438 -8.421875 7.707031 -8.5 7.9375 -8.5 Z M 4.671875 -1.25 C 5.171875 -1.25 5.613281 -1.375 6 -1.625 C 6.394531 -1.882812 6.703125 -2.238281 6.921875 -2.6875 C 7.140625 -3.132812 7.25 -3.640625 7.25 -4.203125 C 7.25 -4.765625 7.140625 -5.269531 6.921875 -5.71875 C 6.703125 -6.164062 6.394531 -6.519531 6 -6.78125 C 5.613281 -7.039062 5.171875 -7.171875 4.671875 -7.171875 C 4.171875 -7.171875 3.722656 -7.039062 3.328125 -6.78125 C 2.941406 -6.53125 2.640625 -6.179688 2.421875 -5.734375 C 2.203125 -5.285156 2.09375 -4.773438 2.09375 -4.203125 C 2.09375 -3.640625 2.203125 -3.132812 2.421875 -2.6875 C 2.640625 -2.238281 2.941406 -1.882812 3.328125 -1.625 C 3.722656 -1.375 4.171875 -1.25 4.671875 -1.25 Z M 4.671875 -1.25 "/></g></g></g><g fill="#59170f" fill-opacity="1"><g transform="translate(144.882665, 352.599968)"><g><path d="M 3.40625 -6.890625 L 3.40625 -2.125 C 3.40625 -1.59375 3.644531 -1.328125 4.125 -1.328125 C 4.195312 -1.328125 4.296875 -1.34375 4.421875 -1.375 C 4.554688 -1.414062 4.660156 -1.4375 4.734375 -1.4375 C 4.867188 -1.4375 4.984375 -1.378906 5.078125 -1.265625 C 5.179688 -1.148438 5.234375 -1 5.234375 -0.8125 C 5.234375 -0.59375 5.101562 -0.398438 4.84375 -0.234375 C 4.59375 -0.078125 4.304688 0 3.984375 0 C 3.628906 0 3.304688 -0.0351562 3.015625 -0.109375 C 2.722656 -0.179688 2.460938 -0.367188 2.234375 -0.671875 C 2.003906 -0.984375 1.890625 -1.445312 1.890625 -2.0625 L 1.890625 -6.890625 L 0.953125 -6.890625 C 0.753906 -6.890625 0.585938 -6.957031 0.453125 -7.09375 C 0.316406 -7.226562 0.25 -7.394531 0.25 -7.59375 C 0.25 -7.800781 0.316406 -7.96875 0.453125 -8.09375 C 0.585938 -8.21875 0.753906 -8.28125 0.953125 -8.28125 L 1.890625 -8.28125 L 1.890625 -9.625 C 1.890625 -9.84375 1.957031 -10.023438 2.09375 -10.171875 C 2.238281 -10.328125 2.425781 -10.40625 2.65625 -10.40625 C 2.863281 -10.40625 3.039062 -10.328125 3.1875 -10.171875 C 3.332031 -10.023438 3.40625 -9.84375 3.40625 -9.625 L 3.40625 -8.28125 L 4.734375 -8.28125 C 4.941406 -8.28125 5.109375 -8.210938 5.234375 -8.078125 C 5.367188 -7.953125 5.4375 -7.785156 5.4375 -7.578125 C 5.4375 -7.378906 5.367188 -7.210938 5.234375 -7.078125 C 5.109375 -6.953125 4.941406 -6.890625 4.734375 -6.890625 Z M 3.40625 -6.890625 "/></g></g></g><g fill="#59170f" fill-opacity="1"><g transform="translate(155.7612, 352.599968)"><g><path d="M 2.578125 -0.765625 C 2.578125 -0.554688 2.503906 -0.375 2.359375 -0.21875 C 2.210938 -0.0703125 2.03125 0 1.8125 0 C 1.59375 0 1.410156 -0.0703125 1.265625 -0.21875 C 1.128906 -0.375 1.0625 -0.554688 1.0625 -0.765625 L 1.0625 -7.703125 C 1.0625 -7.910156 1.128906 -8.085938 1.265625 -8.234375 C 1.410156 -8.390625 1.59375 -8.46875 1.8125 -8.46875 C 2.03125 -8.46875 2.210938 -8.390625 2.359375 -8.234375 C 2.503906 -8.085938 2.578125 -7.910156 2.578125 -7.703125 Z M 1.8125 -9.515625 C 1.5 -9.515625 1.273438 -9.570312 1.140625 -9.6875 C 1.003906 -9.800781 0.9375 -9.976562 0.9375 -10.21875 L 0.9375 -10.484375 C 0.9375 -10.734375 1.007812 -10.910156 1.15625 -11.015625 C 1.300781 -11.128906 1.523438 -11.1875 1.828125 -11.1875 C 2.117188 -11.1875 2.332031 -11.128906 2.46875 -11.015625 C 2.601562 -10.898438 2.671875 -10.722656 2.671875 -10.484375 L 2.671875 -10.21875 C 2.671875 -9.96875 2.597656 -9.785156 2.453125 -9.671875 C 2.316406 -9.566406 2.101562 -9.515625 1.8125 -9.515625 Z M 1.8125 -9.515625 "/></g></g></g><g fill="#59170f" fill-opacity="1"><g transform="translate(164.192325, 352.599968)"><g><path d="M 9.078125 -4.1875 C 9.078125 -3.351562 8.890625 -2.601562 8.515625 -1.9375 C 8.140625 -1.28125 7.628906 -0.765625 6.984375 -0.390625 C 6.335938 -0.0234375 5.625 0.15625 4.84375 0.15625 C 4.070312 0.15625 3.363281 -0.0234375 2.71875 -0.390625 C 2.070312 -0.765625 1.5625 -1.28125 1.1875 -1.9375 C 0.8125 -2.601562 0.625 -3.351562 0.625 -4.1875 C 0.625 -5.019531 0.8125 -5.769531 1.1875 -6.4375 C 1.5625 -7.113281 2.070312 -7.640625 2.71875 -8.015625 C 3.363281 -8.390625 4.070312 -8.578125 4.84375 -8.578125 C 5.625 -8.578125 6.335938 -8.390625 6.984375 -8.015625 C 7.628906 -7.640625 8.140625 -7.113281 8.515625 -6.4375 C 8.890625 -5.769531 9.078125 -5.019531 9.078125 -4.1875 Z M 7.546875 -4.1875 C 7.546875 -4.769531 7.425781 -5.285156 7.1875 -5.734375 C 6.945312 -6.191406 6.617188 -6.546875 6.203125 -6.796875 C 5.796875 -7.046875 5.34375 -7.171875 4.84375 -7.171875 C 4.34375 -7.171875 3.882812 -7.046875 3.46875 -6.796875 C 3.0625 -6.546875 2.738281 -6.191406 2.5 -5.734375 C 2.257812 -5.285156 2.140625 -4.769531 2.140625 -4.1875 C 2.140625 -3.625 2.257812 -3.117188 2.5 -2.671875 C 2.738281 -2.222656 3.0625 -1.875 3.46875 -1.625 C 3.882812 -1.375 4.34375 -1.25 4.84375 -1.25 C 5.34375 -1.25 5.796875 -1.375 6.203125 -1.625 C 6.617188 -1.875 6.945312 -2.222656 7.1875 -2.671875 C 7.425781 -3.117188 7.546875 -3.625 7.546875 -4.1875 Z M 7.546875 -4.1875 "/></g></g></g><g fill="#59170f" fill-opacity="1"><g transform="translate(178.685992, 352.599968)"><g><path d="M 5.40625 -8.578125 C 7.320312 -8.578125 8.28125 -7.425781 8.28125 -5.125 L 8.28125 -0.765625 C 8.28125 -0.554688 8.207031 -0.375 8.0625 -0.21875 C 7.925781 -0.0703125 7.742188 0 7.515625 0 C 7.304688 0 7.128906 -0.0703125 6.984375 -0.21875 C 6.835938 -0.375 6.765625 -0.554688 6.765625 -0.765625 L 6.765625 -5.109375 C 6.765625 -5.734375 6.617188 -6.234375 6.328125 -6.609375 C 6.046875 -6.984375 5.578125 -7.171875 4.921875 -7.171875 C 4.492188 -7.171875 4.109375 -7.078125 3.765625 -6.890625 C 3.421875 -6.703125 3.148438 -6.445312 2.953125 -6.125 C 2.753906 -5.8125 2.65625 -5.472656 2.65625 -5.109375 L 2.65625 -0.765625 C 2.65625 -0.554688 2.582031 -0.375 2.4375 -0.21875 C 2.289062 -0.0703125 2.109375 0 1.890625 0 C 1.660156 0 1.476562 -0.0703125 1.34375 -0.21875 C 1.207031 -0.363281 1.140625 -0.546875 1.140625 -0.765625 L 1.140625 -7.609375 C 1.140625 -7.828125 1.207031 -8.007812 1.34375 -8.15625 C 1.488281 -8.3125 1.671875 -8.390625 1.890625 -8.390625 C 2.109375 -8.390625 2.289062 -8.3125 2.4375 -8.15625 C 2.582031 -8.007812 2.65625 -7.828125 2.65625 -7.609375 L 2.65625 -7.0625 C 2.9375 -7.488281 3.320312 -7.847656 3.8125 -8.140625 C 4.3125 -8.429688 4.84375 -8.578125 5.40625 -8.578125 Z M 5.40625 -8.578125 "/></g></g></g><g fill="#59170f" fill-opacity="1"><g transform="translate(192.907724, 352.599968)"><g/></g></g><g fill="#59170f" fill-opacity="1"><g transform="translate(202.138654, 352.599968)"><g><path d="M 9.859375 -1.28125 C 9.960938 -1.207031 10.046875 -1.113281 10.109375 -1 C 10.171875 -0.882812 10.203125 -0.769531 10.203125 -0.65625 C 10.203125 -0.425781 10.128906 -0.257812 9.984375 -0.15625 C 9.847656 -0.0507812 9.675781 0 9.46875 0 C 9.269531 0 9.097656 -0.0390625 8.953125 -0.125 C 8.640625 -0.3125 8.378906 -0.601562 8.171875 -1 C 7.972656 -1.40625 7.875 -2.003906 7.875 -2.796875 C 7.875 -3.328125 7.710938 -3.722656 7.390625 -3.984375 C 7.066406 -4.242188 6.648438 -4.375 6.140625 -4.375 L 2.90625 -4.375 L 2.90625 -0.765625 C 2.90625 -0.546875 2.84375 -0.363281 2.71875 -0.21875 C 2.59375 -0.0703125 2.425781 0 2.21875 0 C 1.976562 0 1.769531 -0.0703125 1.59375 -0.21875 C 1.414062 -0.375 1.328125 -0.554688 1.328125 -0.765625 L 1.328125 -10.4375 C 1.328125 -10.644531 1.398438 -10.820312 1.546875 -10.96875 C 1.703125 -11.125 1.882812 -11.203125 2.09375 -11.203125 L 6.59375 -11.203125 C 7.164062 -11.203125 7.691406 -11.0625 8.171875 -10.78125 C 8.648438 -10.5 9.035156 -10.109375 9.328125 -9.609375 C 9.617188 -9.109375 9.765625 -8.550781 9.765625 -7.9375 C 9.765625 -7.34375 9.601562 -6.785156 9.28125 -6.265625 C 8.957031 -5.742188 8.546875 -5.359375 8.046875 -5.109375 C 8.441406 -4.898438 8.753906 -4.613281 8.984375 -4.25 C 9.210938 -3.894531 9.335938 -3.472656 9.359375 -2.984375 C 9.398438 -2.378906 9.445312 -1.96875 9.5 -1.75 C 9.550781 -1.53125 9.671875 -1.375 9.859375 -1.28125 Z M 6.5625 -5.703125 C 6.820312 -5.722656 7.070312 -5.828125 7.3125 -6.015625 C 7.5625 -6.203125 7.757812 -6.457031 7.90625 -6.78125 C 8.050781 -7.113281 8.125 -7.484375 8.125 -7.890625 C 8.125 -8.398438 7.96875 -8.832031 7.65625 -9.1875 C 7.34375 -9.550781 6.960938 -9.734375 6.515625 -9.734375 L 2.90625 -9.734375 L 2.90625 -5.703125 Z M 6.5625 -5.703125 "/></g></g></g><g fill="#59170f" fill-opacity="1"><g transform="translate(217.81604, 352.599968)"><g><path d="M 8.5 -4.515625 C 8.488281 -4.316406 8.40625 -4.148438 8.25 -4.015625 C 8.101562 -3.890625 7.929688 -3.828125 7.734375 -3.828125 L 2.09375 -3.828125 C 2.164062 -3.046875 2.460938 -2.421875 2.984375 -1.953125 C 3.503906 -1.484375 4.132812 -1.25 4.875 -1.25 C 5.382812 -1.25 5.800781 -1.320312 6.125 -1.46875 C 6.445312 -1.625 6.726562 -1.816406 6.96875 -2.046875 C 7.132812 -2.140625 7.289062 -2.1875 7.4375 -2.1875 C 7.625 -2.1875 7.773438 -2.125 7.890625 -2 C 8.015625 -1.875 8.078125 -1.722656 8.078125 -1.546875 C 8.078125 -1.328125 7.972656 -1.125 7.765625 -0.9375 C 7.453125 -0.632812 7.039062 -0.375 6.53125 -0.15625 C 6.019531 0.0507812 5.492188 0.15625 4.953125 0.15625 C 4.085938 0.15625 3.328125 -0.0195312 2.671875 -0.375 C 2.023438 -0.738281 1.519531 -1.242188 1.15625 -1.890625 C 0.800781 -2.546875 0.625 -3.285156 0.625 -4.109375 C 0.625 -5.003906 0.804688 -5.789062 1.171875 -6.46875 C 1.546875 -7.144531 2.03125 -7.664062 2.625 -8.03125 C 3.226562 -8.394531 3.878906 -8.578125 4.578125 -8.578125 C 5.253906 -8.578125 5.890625 -8.398438 6.484375 -8.046875 C 7.085938 -7.691406 7.570312 -7.203125 7.9375 -6.578125 C 8.300781 -5.960938 8.488281 -5.273438 8.5 -4.515625 Z M 4.578125 -7.171875 C 3.984375 -7.171875 3.46875 -7 3.03125 -6.65625 C 2.59375 -6.320312 2.300781 -5.804688 2.15625 -5.109375 L 6.875 -5.109375 L 6.875 -5.234375 C 6.820312 -5.796875 6.566406 -6.257812 6.109375 -6.625 C 5.660156 -6.988281 5.148438 -7.171875 4.578125 -7.171875 Z M 4.578125 -7.171875 "/></g></g></g><g fill="#59170f" fill-opacity="1"><g transform="translate(231.73384, 352.599968)"><g><path d="M 5.40625 -8.578125 C 7.320312 -8.578125 8.28125 -7.425781 8.28125 -5.125 L 8.28125 -0.765625 C 8.28125 -0.554688 8.207031 -0.375 8.0625 -0.21875 C 7.925781 -0.0703125 7.742188 0 7.515625 0 C 7.304688 0 7.128906 -0.0703125 6.984375 -0.21875 C 6.835938 -0.375 6.765625 -0.554688 6.765625 -0.765625 L 6.765625 -5.109375 C 6.765625 -5.734375 6.617188 -6.234375 6.328125 -6.609375 C 6.046875 -6.984375 5.578125 -7.171875 4.921875 -7.171875 C 4.492188 -7.171875 4.109375 -7.078125 3.765625 -6.890625 C 3.421875 -6.703125 3.148438 -6.445312 2.953125 -6.125 C 2.753906 -5.8125 2.65625 -5.472656 2.65625 -5.109375 L 2.65625 -0.765625 C 2.65625 -0.554688 2.582031 -0.375 2.4375 -0.21875 C 2.289062 -0.0703125 2.109375 0 1.890625 0 C 1.660156 0 1.476562 -0.0703125 1.34375 -0.21875 C 1.207031 -0.363281 1.140625 -0.546875 1.140625 -0.765625 L 1.140625 -7.609375 C 1.140625 -7.828125 1.207031 -8.007812 1.34375 -8.15625 C 1.488281 -8.3125 1.671875 -8.390625 1.890625 -8.390625 C 2.109375 -8.390625 2.289062 -8.3125 2.4375 -8.15625 C 2.582031 -8.007812 2.65625 -7.828125 2.65625 -7.609375 L 2.65625 -7.0625 C 2.9375 -7.488281 3.320312 -7.847656 3.8125 -8.140625 C 4.3125 -8.429688 4.84375 -8.578125 5.40625 -8.578125 Z M 5.40625 -8.578125 "/></g></g></g><g fill="#59170f" fill-opacity="1"><g transform="translate(245.955573, 352.599968)"><g><path d="M 3.40625 -6.890625 L 3.40625 -2.125 C 3.40625 -1.59375 3.644531 -1.328125 4.125 -1.328125 C 4.195312 -1.328125 4.296875 -1.34375 4.421875 -1.375 C 4.554688 -1.414062 4.660156 -1.4375 4.734375 -1.4375 C 4.867188 -1.4375 4.984375 -1.378906 5.078125 -1.265625 C 5.179688 -1.148438 5.234375 -1 5.234375 -0.8125 C 5.234375 -0.59375 5.101562 -0.398438 4.84375 -0.234375 C 4.59375 -0.078125 4.304688 0 3.984375 0 C 3.628906 0 3.304688 -0.0351562 3.015625 -0.109375 C 2.722656 -0.179688 2.460938 -0.367188 2.234375 -0.671875 C 2.003906 -0.984375 1.890625 -1.445312 1.890625 -2.0625 L 1.890625 -6.890625 L 0.953125 -6.890625 C 0.753906 -6.890625 0.585938 -6.957031 0.453125 -7.09375 C 0.316406 -7.226562 0.25 -7.394531 0.25 -7.59375 C 0.25 -7.800781 0.316406 -7.96875 0.453125 -8.09375 C 0.585938 -8.21875 0.753906 -8.28125 0.953125 -8.28125 L 1.890625 -8.28125 L 1.890625 -9.625 C 1.890625 -9.84375 1.957031 -10.023438 2.09375 -10.171875 C 2.238281 -10.328125 2.425781 -10.40625 2.65625 -10.40625 C 2.863281 -10.40625 3.039062 -10.328125 3.1875 -10.171875 C 3.332031 -10.023438 3.40625 -9.84375 3.40625 -9.625 L 3.40625 -8.28125 L 4.734375 -8.28125 C 4.941406 -8.28125 5.109375 -8.210938 5.234375 -8.078125 C 5.367188 -7.953125 5.4375 -7.785156 5.4375 -7.578125 C 5.4375 -7.378906 5.367188 -7.210938 5.234375 -7.078125 C 5.109375 -6.953125 4.941406 -6.890625 4.734375 -6.890625 Z M 3.40625 -6.890625 "/></g></g></g><g fill="#59170f" fill-opacity="1"><g transform="translate(256.834108, 352.599968)"><g><path d="M 7.9375 -8.5 C 8.15625 -8.5 8.335938 -8.425781 8.484375 -8.28125 C 8.628906 -8.132812 8.703125 -7.945312 8.703125 -7.71875 L 8.703125 -0.765625 C 8.703125 -0.554688 8.628906 -0.375 8.484375 -0.21875 C 8.335938 -0.0703125 8.15625 0 7.9375 0 C 7.707031 0 7.523438 -0.0703125 7.390625 -0.21875 C 7.253906 -0.363281 7.1875 -0.546875 7.1875 -0.765625 L 7.1875 -1.1875 C 6.90625 -0.8125 6.523438 -0.492188 6.046875 -0.234375 C 5.566406 0.0234375 5.050781 0.15625 4.5 0.15625 C 3.769531 0.15625 3.109375 -0.0234375 2.515625 -0.390625 C 1.921875 -0.765625 1.457031 -1.285156 1.125 -1.953125 C 0.789062 -2.617188 0.625 -3.367188 0.625 -4.203125 C 0.625 -5.035156 0.789062 -5.785156 1.125 -6.453125 C 1.457031 -7.117188 1.914062 -7.640625 2.5 -8.015625 C 3.09375 -8.390625 3.742188 -8.578125 4.453125 -8.578125 C 5.015625 -8.578125 5.535156 -8.457031 6.015625 -8.21875 C 6.503906 -7.988281 6.894531 -7.691406 7.1875 -7.328125 L 7.1875 -7.71875 C 7.1875 -7.9375 7.253906 -8.117188 7.390625 -8.265625 C 7.523438 -8.421875 7.707031 -8.5 7.9375 -8.5 Z M 4.671875 -1.25 C 5.171875 -1.25 5.613281 -1.375 6 -1.625 C 6.394531 -1.882812 6.703125 -2.238281 6.921875 -2.6875 C 7.140625 -3.132812 7.25 -3.640625 7.25 -4.203125 C 7.25 -4.765625 7.140625 -5.269531 6.921875 -5.71875 C 6.703125 -6.164062 6.394531 -6.519531 6 -6.78125 C 5.613281 -7.039062 5.171875 -7.171875 4.671875 -7.171875 C 4.171875 -7.171875 3.722656 -7.039062 3.328125 -6.78125 C 2.941406 -6.53125 2.640625 -6.179688 2.421875 -5.734375 C 2.203125 -5.285156 2.09375 -4.773438 2.09375 -4.203125 C 2.09375 -3.640625 2.203125 -3.132812 2.421875 -2.6875 C 2.640625 -2.238281 2.941406 -1.882812 3.328125 -1.625 C 3.722656 -1.375 4.171875 -1.25 4.671875 -1.25 Z M 4.671875 -1.25 "/></g></g></g><g fill="#59170f" fill-opacity="1"><g transform="translate(271.455743, 352.599968)"><g><path d="M 2.78125 -0.765625 C 2.78125 -0.554688 2.707031 -0.375 2.5625 -0.21875 C 2.414062 -0.0703125 2.234375 0 2.015625 0 C 1.804688 0 1.628906 -0.0703125 1.484375 -0.21875 C 1.335938 -0.375 1.265625 -0.554688 1.265625 -0.765625 L 1.265625 -11.078125 C 1.265625 -11.285156 1.335938 -11.460938 1.484375 -11.609375 C 1.640625 -11.765625 1.820312 -11.84375 2.03125 -11.84375 C 2.25 -11.84375 2.425781 -11.765625 2.5625 -11.609375 C 2.707031 -11.460938 2.78125 -11.285156 2.78125 -11.078125 Z M 2.78125 -0.765625 "/></g></g></g><g fill="#59170f" fill-opacity="1"><g transform="translate(280.302769, 352.599968)"><g><path d="M 0.65625 -1.3125 C 0.5625 -1.457031 0.515625 -1.601562 0.515625 -1.75 C 0.515625 -1.957031 0.625 -2.132812 0.84375 -2.28125 C 0.957031 -2.363281 1.082031 -2.40625 1.21875 -2.40625 C 1.40625 -2.40625 1.582031 -2.320312 1.75 -2.15625 C 2.0625 -1.789062 2.398438 -1.519531 2.765625 -1.34375 C 3.140625 -1.164062 3.582031 -1.078125 4.09375 -1.078125 C 4.5 -1.085938 4.851562 -1.175781 5.15625 -1.34375 C 5.46875 -1.519531 5.625 -1.804688 5.625 -2.203125 C 5.625 -2.566406 5.46875 -2.84375 5.15625 -3.03125 C 4.84375 -3.226562 4.382812 -3.40625 3.78125 -3.5625 C 3.175781 -3.726562 2.675781 -3.898438 2.28125 -4.078125 C 1.894531 -4.253906 1.5625 -4.507812 1.28125 -4.84375 C 1.007812 -5.175781 0.875 -5.613281 0.875 -6.15625 C 0.875 -6.632812 1.007812 -7.054688 1.28125 -7.421875 C 1.5625 -7.785156 1.925781 -8.066406 2.375 -8.265625 C 2.832031 -8.472656 3.328125 -8.578125 3.859375 -8.578125 C 4.367188 -8.578125 4.875 -8.476562 5.375 -8.28125 C 5.882812 -8.09375 6.300781 -7.800781 6.625 -7.40625 C 6.75 -7.257812 6.8125 -7.101562 6.8125 -6.9375 C 6.8125 -6.769531 6.726562 -6.609375 6.5625 -6.453125 C 6.457031 -6.347656 6.320312 -6.296875 6.15625 -6.296875 C 5.96875 -6.296875 5.816406 -6.363281 5.703125 -6.5 C 5.472656 -6.75 5.195312 -6.941406 4.875 -7.078125 C 4.550781 -7.222656 4.191406 -7.296875 3.796875 -7.296875 C 3.390625 -7.296875 3.046875 -7.210938 2.765625 -7.046875 C 2.484375 -6.878906 2.34375 -6.597656 2.34375 -6.203125 C 2.351562 -5.828125 2.515625 -5.550781 2.828125 -5.375 C 3.140625 -5.195312 3.617188 -5.019531 4.265625 -4.84375 C 4.835938 -4.695312 5.304688 -4.535156 5.671875 -4.359375 C 6.046875 -4.191406 6.363281 -3.941406 6.625 -3.609375 C 6.882812 -3.273438 7.015625 -2.832031 7.015625 -2.28125 C 7.015625 -1.78125 6.867188 -1.347656 6.578125 -0.984375 C 6.285156 -0.617188 5.90625 -0.335938 5.4375 -0.140625 C 4.976562 0.0546875 4.488281 0.15625 3.96875 0.15625 C 3.289062 0.15625 2.664062 0.0390625 2.09375 -0.1875 C 1.53125 -0.425781 1.050781 -0.800781 0.65625 -1.3125 Z M 0.65625 -1.3125 "/></g></g></g></svg>